<svg xmlns="http://www.w3.org/2000/svg" viewBox="0 0 1254 1254"><g stroke-width="0"><path d="M616 209.5V242h188v103h-53l-.2-23.3-.3-23.2-67.2-.3-67.3-.2v84c0 46.2-.4 84-.8 84-.7 0-22.1-7.5-48.9-17.1l-9.3-3.4-.2-73.5-.3-73.5h-133l-.3 23.3-.2 23.2-26.8-.2-26.7-.3v-102l93.8-.3 93.7-.2v-65h59zm26.6 107c36.9 12 62.5 36.6 71.8 68.9 2.3 7.6 5.4 29.2 4.4 30.1-.3.3-45.9.8-54 .5-1.4 0-1.8-.9-1.8-3.8 0-5.6-2.6-15.6-5.6-21.5-5-9.9-18.5-20.6-31.6-25-1.7-.6-1.8-2.8-1.8-27.3v-26.6l4.3.7c2.3.4 8.7 2.2 14.3 4M549 338.9v25.9l-6 2.2c-22.7 8.5-37.4 31.1-32.6 50.1 3.8 14.9 15.5 25 40.1 34.7 5.5 2.2 20.1 7.6 32.5 12 45.2 16.2 54.4 19.8 70.7 27.9 27.4 13.5 46.2 30.5 57.5 52 18 34.1 14.1 82-9.5 116.7-15.6 23.1-45.4 42.7-76.7 50.8l-9 2.3V770h-59v-57l-2.7-.5c-8.5-1.7-31.7-10.1-41.4-15-29.2-14.7-46.1-30.8-57.4-54.9-6.7-14.1-10.5-32.3-10.5-50.4V583l26.8.2 26.7.3.7 6.5c2.2 22.8 12.8 42.1 30.2 55.5 6.9 5.2 19.2 11.7 24.8 13.1l2.8.6.2-66.5.3-66.5 18 7.2c17.7 7.2 23.4 9.7 34.8 15.1l5.7 2.7v108.6l4.3-.9c6.1-1.3 17.7-7.3 23.3-11.9 9.9-8.2 17.1-19.6 20.4-32.4 5.3-20.8 2.7-38.4-7.6-50.4-11-12.9-25.9-20.5-80.1-41.3-39.1-14.9-46.2-17.8-59.8-24.5-18.3-8.9-27.4-15.2-39.5-27.3-8.8-8.8-11.4-12.1-15.2-19.6-7-13.6-9.2-23.1-9.1-39.5 0-15.7 1.9-24.5 8.2-37.7 5.5-11.4 10.6-18.5 19.8-27.4 14.6-14.3 31.1-23.7 54.8-31 5-1.5 10-2.8 11.3-2.8l2.2-.1zm442-19.2c0 .3-2.9 21.1-6.4 46.2-3.6 25.1-7.9 56.1-9.7 68.9-2.7 19.2-3.5 23.2-4.7 22.7-.8-.3-10.2-6-20.9-12.6s-20-11.8-20.7-11.6c-1.3.5-25.9 30.4-59.1 71.7-22.2 27.6-46.7 57.7-72.7 89.2L778.1 617l-8.5-11.3c-4.7-6.1-21.3-28.1-36.8-48.7-17.2-22.7-31.5-40.6-36.4-45.5-9-8.9-20.9-17.7-33.2-24.5l-8.1-4.5-.1-28.3V426h61.5l11.5 15.7c15.2 20.6 28.6 39.7 42.2 60.1 6.1 9.2 11.3 16.9 11.6 17.2.2.3 1.6-.9 3-2.5 6.5-7.4 65.3-75.6 70.7-82.1 21.6-25.6 25.6-30.3 28.8-34l3.6-4.1-17.5-19.3c-11.8-13.2-17-19.6-16.2-20.1 2.7-1.4 53.6-16.1 88.3-25.4 51.7-13.9 48.5-13.1 48.5-11.8m-81.6 275.2-.7 118.1H856V542l23.2-28.8c28.6-35.4 30.1-37.2 30.6-36.8.2.2 0 53.5-.4 118.5m-86.5 220.6c31.5 7.5 49.6 41.2 38.8 72.3-7.3 21-26.1 34.6-49.7 35.9-18.3 1-32.4-4.1-44.5-16.1-10.9-10.8-15.5-22-15.5-38 0-18.4 6.6-32.5 20.2-43.2 14-10.9 33-15 50.7-10.9M223 828v13h-34l-.2 40.7-.3 40.8-14.2.3-14.3.3V841h-35v-26h98zm37 8v21h42v-42h28l-.2 53.7-.3 53.8h-27l-.3-19.8-.2-19.7-20.8.2-20.7.3-.5 19.5-.5 19.5H232V815h28zm117.2 32.8c.3 52.6.3 53.3-1.7 53.7-1.1.2-7.4.3-14 .2l-12-.2-.3-53.8-.2-53.8 14 .3 14 .3zm57-35c8.4 10.3 19.1 23.6 23.8 29.4 4.7 5.9 8.7 10.7 9 10.7.3.1.5-13.1.5-29.2v-29.2l13.8-.3 13.7-.3-.2 53.8-.3 53.8h-22.9L448 893.8l-23.5-28.7-.3 29-.2 28.9h-11.9c-6.6 0-12.6-.3-13.5-.6-1.4-.5-1.6-6.2-1.6-54V815h21.9zm108.3 4.5c0 12.5.2 22.7.5 22.7s9.3-10.4 20-23l19.4-23h15.9c15 0 15.9.1 14.6 1.7-.7 1-7.9 9.6-15.9 19.1-8 9.6-17 20.4-20.1 24.1l-5.6 6.7 21.7 27.6 21.7 27.6-3.6.6c-2 .3-9.5.6-16.8.6h-13.1l-13.7-17.5c-7.6-9.6-14.1-17.5-14.5-17.5s-2.7 2.3-5.1 5.2l-4.4 5.2-.5 12.1-.5 12h-27l-.3-53.8-.2-53.8 13.7.3 13.8.3zm113.5-2c21 35.8 23.4 39.7 23.9 39.7.4 0 8-12.5 17-27.8 9.1-15.2 17.3-29 18.4-30.5l1.9-2.8 10.6.3 10.7.3v107h-26l-.5-27c-.3-14.9-.7-26.5-.8-25.9s-5.3 9.8-11.6 20.5l-11.5 19.4-8.3.3-8.4.3-12-20.3-11.9-20.3-.3 26.6-.2 26.7-9.5.1c-5.3.1-11.1-.1-13-.5l-3.5-.6v-52.7c0-29 .3-53.1.7-53.4.3-.4 5.4-.7 11.2-.7l10.6.1zm246.6-15.1c2.8 3.5 8 10.1 11.5 14.8 10.2 13.3 23.5 30.2 26.8 34l3 3.5.1-29.3V815h25l-.2 53.7-.3 53.8-8.5.2c-4.7.2-9-.1-9.5-.5-.6-.4-7.1-8.1-14.5-17.2s-17.2-21.2-21.9-27l-8.6-10.5-.5 27.5-.5 27.5h-25l-.3-53.8-.2-53.7h18.7zM1065 828v13h-50v16h42v25h-42v17h51v24l-38.7-.2-38.6-.3.2-45.5c0-25 .1-49.2.1-53.8V815h76zm35.6-7.8c3.9 7.9 19.5 35.1 20.9 36.6 1 1.1 3.6-2.6 13.6-20.2l12.3-21.6h13.8c7.6 0 13.8.3 13.8.6 0 .4-9.1 16.2-20.2 35.2l-20.1 34.5-.1 18.6-.1 18.6h-25l-.5-19.5c-.5-19.3-.5-19.5-3.3-23.8-3.1-4.8-36.7-63.2-36.7-63.8 0-.2 6.5-.4 14.5-.4h14.5zM350.7 952.7c3.4 1.6 3.6 1.6 4.9-.1.7-1 2.1-1.6 3.1-1.4 4.4.8 1.4 8.8-3.4 8.8-1.5 0-4.2-.6-6.1-1.3-2.8-1-3.6-1-3.9 0-.3.7-1.6 1.3-2.9 1.3-3.1 0-3.3-3.7-.4-6.8 2.5-2.6 4.1-2.7 8.7-.5m623.3-1.1c0 .3-1.5 2.3-3.2 4.4-2.6 3.1-4 4-6.5 4-1.8 0-3.3-.3-3.3-.6 0-.4 1-2.4 2.2-4.5 2-3.6 2.5-3.9 6.5-3.9 2.4 0 4.3.3 4.3.6m-744.4 12c3 1.4 7.4 6.1 7.4 7.8 0 .3-1.4 1.3-3.1 2.2-2.9 1.5-3.2 1.4-5.3-.5-7.5-7.1-18.6-2.3-18.6 8.1 0 5.4 1.5 8.5 5.2 10.8 4.4 2.8 9.4 2 12.7-1.7l2.5-2.8-5-.5c-4.7-.5-4.9-.6-5.2-3.8l-.3-3.2H238v4.5c0 10.4-5.3 15.7-16.1 16.3-5.7.4-7.4 0-10.9-1.9-7.4-4.2-11.4-14.1-9.1-22.7 1.4-5 6.3-10.9 10.6-12.8 4.2-1.8 13-1.7 17.1.2m39.9 2.4v3.5l-8.7.3-8.8.3v6.8l7.8.3 7.7.3.3 3.7.3 3.8H252v8h18v8h-27v-18.8c0-10.4.3-19.2.7-19.6.4-.3 6.3-.5 13.2-.4l12.6.3zm28.6-1.7c4.2 2.8 4.7 4.9 1.6 7-2.3 1.5-2.7 1.4-6.5-.5-5.2-2.5-9.7-1.5-9.7 2.2 0 2.1.9 2.7 7.5 4.7 9.2 2.8 12 5.5 12 11.7 0 5-2.4 8.7-7 10.6-4.4 1.8-15.3.9-18.7-1.6-4.7-3.5-5-4.9-1.7-7.7l2.9-2.6 2.6 2.5c3.5 3.4 8.8 4.1 11.7 1.7 3.5-2.8 1.9-5-4.7-6.9-8-2.3-10.8-4-12.6-7.4-2.2-4.2-1.9-7.4 1.2-11 3.3-4 5.4-4.9 12.4-4.9 4.3-.1 6.4.5 9 2.2M336 966v4h-10.9l-.3 15.2-.3 15.3h-8l-.3-15.2-.3-15.2-5.6-.3-5.7-.3.1-3.3c.1-1.7.2-3.4.2-3.7.1-.3 7.1-.5 15.6-.5H336zm25.8 13.7c3.9 9.8 7.4 18.6 7.8 19.5.5 1.6 0 1.8-3.8 1.8-4.3 0-4.6-.2-6.1-4l-1.5-4h-14.7l-1.7 4c-1.5 3.7-1.9 4-5.7 4-2.3 0-4.1-.2-4.1-.5s3-8.1 6.6-17.3c3.7-9.2 7-17.7 7.5-19 .7-1.7 1.6-2.2 4.7-2.2h3.9zm36.5-16.3c6.1 2.5 11.7 11.1 11.7 18.1s-5.6 15.6-11.7 18.1c-4.9 2.1-13.7 1.8-18.3-.6-2.2-1.1-5.2-3.9-6.7-6.2-2.4-3.6-2.8-5.2-2.8-11.3s.4-7.8 2.7-11.2c4.8-7.3 16.5-10.5 25.1-6.9M454 966v4h-17v3.5c0 1.9-.1 3.8-.2 4.1-.2.4 3.1.7 7.2.8l7.5.1.3 3.7.3 3.8H437l-.2 4.2c-.1 2.4-.2 5.6-.2 7.3-.1 2.8-.3 3-4.1 3h-4l-.3-18c-.1-9.8 0-18.5.2-19.2.4-1 3.8-1.3 13.1-1.3H454zm13 15.5v19.5h-8v-39h8zm23-7.8 8.5 11.3.3-11.5.3-11.5h7.9v39h-3.4c-3.1 0-4-.8-12-11.5-4.7-6.3-8.7-11.5-8.9-11.5-.1 0-.2 5.1-.2 11.2v11.3l-4.2.3-4.3.3v-39.2l3.8.3c3.4.3 4.3 1.1 12.2 11.5m50.7 6.3c3.9 9.6 7.2 18.3 7.2 19.2.1 1.4-.7 1.8-4 1.8-3.8 0-4.2-.2-5.6-4l-1.6-4h-14.4l-1.6 4c-1.4 3.8-1.8 4-5.6 4-2.3 0-4.1-.4-4.1-1 0-1 9-24.2 13-33.5 1.9-4.4 2.1-4.6 5.7-4.3l3.8.3zm26.7-6.3 8.5 11.7.3-11.5.3-11.4 3.8-.3 3.7-.3v39.1h-3.3c-3.1 0-3.9-.8-10.5-9.8-10.5-14.6-10.2-14.5-10.2-1.3v11.1h-8v-39h3.4c3.2 0 3.9.7 12 11.7m50.2-10.1c3.6 1.7 7.4 5.8 7.4 7.9 0 .7-1.3 1.8-3 2.5-2.7 1.1-3.2 1-6.1-1.4-4.4-3.8-10.5-3.6-14.3.3-5.7 5.9-4 16.8 3 19.7 4.5 1.9 7.9 1.2 11.6-2.3 2.5-2.4 3-2.5 5.8-1.3 3.5 1.5 3.7 2.8 1 6.2-4 5.2-14.5 7.5-21.7 4.7-11.9-4.5-15.3-24.5-5.7-33 5.7-5 15.4-6.4 22-3.3m38.9 2.4v3.5l-8.6.3-8.7.3-.4 3.4-.4 3.5H654v7.9l-7.7.3-7.8.3-.3 3.7-.3 3.8H657v8h-27v-39.1l13.3.3 13.2.3zm14.5 15.5v19.5h-8v-39h8zm28.1-18.5c4.8 1.3 7.9 5 8.6 9.8.7 5.6-.3 8.9-3.6 12l-2.9 2.7 4.1 6.4c3.5 5.5 4.2 6.1 4.9 4.5.5-1 3.9-9.6 7.7-18.9l6.8-17h7.8l7.2 18c4 9.9 7.2 18.6 7.3 19.2 0 .9-1.5 1.3-4.1 1.3-3.8 0-4.2-.2-5.6-4l-1.6-4h-14.2l-1.7 4-1.7 4h-17.9l-4.1-6.6c-3.6-5.7-4.5-6.5-6.8-6.2-2.5.3-2.6.6-2.7 6.3l-.1 6h-8l-.3-18c-.1-9.8 0-18.5.2-19.2.6-1.6 15.3-1.8 20.7-.3m89.9 3v4h-17v7.5h14.5l.3 3.7.3 3.8H772v8h8.3c4.6 0 8.6.2 8.8.5.3.2.3 2 .1 4l-.4 3.5H763v-18.8c0-10.4.3-19.2.7-19.5.3-.4 6.2-.7 13-.7H789zm29-.5 3 2.9-2.7 2.8c-2.6 2.8-2.7 2.8-4.7.9-4.4-4.1-11.6-3.4-11.6 1 0 2.1 1.9 3.2 8.8 4.9 2.3.6 5.7 2.4 7.5 4 2.7 2.4 3.2 3.5 3.2 7.4 0 3.8-.5 5.1-3.2 7.8-3 3-3.9 3.3-10.5 3.6-6.3.3-7.7.1-10.7-2-5.6-3.8-6.1-5.5-2.7-8.3 2.9-2.3 3-2.3 4.3-.5 3.4 4.9 14.8 4.6 14.1-.3-.2-1.8-1.7-2.7-7.6-4.7-8.7-2.9-12.2-6.3-12.2-11.6 0-7.9 5.2-11.7 15.2-11.2 5.8.3 7.1.8 9.8 3.3m36 .5v4h-10.9l-.3 15.2-.3 15.3-4.2.3-4.3.3V970h-11v-8h31zm25-2.7c4.5 1.6 8 6.8 8 12 0 4.2-3 10.1-5.5 11.1-1.2.4-.8 1.6 2 6.1 5.4 8.4 5.4 8.5.2 8.5-4.4 0-4.5-.1-8.6-6.5-3.2-5.2-4.5-6.5-6.6-6.5-2.4 0-2.5.2-2.5 6.5v6.5h-7.9l-.3-19.1c-.2-10.5-.1-19.3.1-19.5 1-.9 17.8-.2 21.1.9m40.1 17.9c4.2 10.3 7.4 19 7.1 19.3s-2.3.5-4.4.5c-3.5 0-3.9-.3-5.4-4l-1.6-4h-14.3l-1.7 4c-1.5 3.7-1.9 4-5.7 4-2.3 0-4.1-.3-4.1-.7 0-.7 13.9-36.3 14.7-37.6.3-.4 2.1-.7 4.1-.5l3.7.3zM951 966c0 4 0 4-4 4h-3.9l-.3 15.2-.3 15.3h-8l-.1-10c-.1-5.5-.2-12.4-.3-15.3l-.1-5.2h-11v-3.3c0-1.9.3-3.7.7-4 .3-.4 6.6-.7 14-.7H951zm27 0v4h-17.1l.3 3.6.3 3.7 7 .1 7 .1.3 3.7.3 3.8H961v8h18.1l-.3 3.7-.3 3.8-12.6.3-12.7.3-.7-12.3c-.5-9.4-.2-23.7.4-26.6.1-.1 5.7-.2 12.6-.2H978zm29-2.4c3.4 1.4 8 5.8 8 7.8 0 .3-1.4 1.3-3.1 2.2-2.9 1.5-3.2 1.4-5.3-.5-5.3-4.9-12.4-4.4-16.1 1.3-2.1 3.2-2.1 10.4-.1 14.5 3 5.7 11.7 6.4 15.7 1.2l2.1-2.6-4.9-.5c-4.6-.5-4.8-.7-5.1-3.8l-.3-3.2h18.1v4.6c0 11.9-9.3 18.4-22.5 16-8.2-1.6-14.1-10.9-13.3-21 1.1-13.6 13.8-21.2 26.8-16m21.8 18.2.2 19.3-4.2-.3-4.3-.3-.2-18c-.2-9.9-.1-18.6.2-19.3.3-.9 1.8-1.2 4.2-1l3.8.3zm31.5-18.4c3.1 1.3 8.7 6.8 8.7 8.6 0 .5-1.6 1.4-3.6 2-3.2 1.1-3.7 1-5-.9-1.7-2.3-6.7-4-10.1-3.3-5.4 1-9 8-7.7 14.8 1.6 8.6 12.3 12.2 17.4 5.7 1.8-2.3 2.2-2.4 5.5-1.3 1.9.6 3.5 1.5 3.5 2 0 1.6-5.2 7.1-8.1 8.5-3.3 1.8-13.1 2-16.2.4-3.7-1.9-7.8-6.2-9.3-9.8-2.9-7-.8-18.9 4.2-23.2 5.6-4.8 14.2-6.3 20.7-3.5m38.8 16.6c3.8 9.6 7.2 18.3 7.5 19.2.5 1.5-.1 1.8-3.9 1.8-4.2 0-4.4-.1-5.7-4l-1.3-4H1081l-1.6 4c-1.5 3.7-1.9 4-5.5 4-2.1 0-3.9-.5-3.9-1 0-1.2 12.4-32.9 14-36 .9-1.6 1.9-2 4.7-1.8l3.5.3z"/><path d="M801.1 841c-13.6 2.9-22.5 14.4-22.5 29 .1 9.3 2.9 16.4 8.6 21.6 6.4 5.8 12 7.8 21.3 7.8 12.5 0 21-4.8 26.3-14.8 2.4-4.5 2.7-6.2 2.7-14.6 0-7.9-.4-10.2-2.2-13.6-6.3-11.8-20.6-18.2-34.2-15.4m-452 137.1c-.7 2.3-1.5 4.7-1.8 5.5-.4 1.1.5 1.4 3.7 1.4 3.8 0 4.1-.2 3.4-2.2-1-3.2-3.4-8.8-3.8-8.8-.1 0-.8 1.8-1.5 4.1m37.2-7.9c-4.8 1.3-7.3 5.1-7.3 11.3 0 6.4 2.4 9.9 7.9 11.6 7.3 2.2 14.1-3.4 14.1-11.6 0-4.8-2.3-9-5.7-10.3-4.9-1.8-5.7-1.9-9-1m141 9.4-2.1 5.4h8.6l-2-5.3c-1.1-2.8-2.1-5.3-2.2-5.4s-1.1 2.3-2.3 5.3m159.7-4.1v5.5h4.1c5.9 0 7.9-1.4 7.9-5.5s-2-5.5-7.9-5.5H687zm39.3 4.1-2.1 5.4h8.6l-2-5.3c-1.1-2.8-2.1-5.3-2.2-5.4s-1.1 2.3-2.3 5.3m139.7-4.1v5.5h4.5c4.7 0 8.5-2.5 8.5-5.5s-3.8-5.5-8.5-5.5H866zm39.7 3.3c-.9 2.6-1.7 5-1.7 5.4 0 .5 1.8.8 4 .8h4l-2.1-5.3c-1.1-2.8-2.2-5.3-2.3-5.4-.1-.2-1 1.9-1.9 4.5m181.9-3.8c-.3.8-1.2 3.4-2 5.7l-1.5 4.3h3.9c2.2 0 4-.3 4-.8 0-.4-.9-3-1.9-5.7-1.2-3.2-2.1-4.5-2.5-3.5"/></g><path fill="#555" d="M557.8 177.7c.6.2 1.8.2 2.5 0 .6-.3.1-.5-1.3-.5s-1.9.2-1.2.5m62 65c2.3.2 6.1.2 8.5 0 2.3-.2.4-.4-4.3-.4s-6.6.2-4.2.4m56 0c23.9.2 62.6.2 86 0 23.5-.1 4-.2-43.3-.2s-66.5.1-42.7.2m-127.6 72.8c0 1.6.2 2.2.5 1.2.2-.9.2-2.3 0-3-.3-.6-.5.1-.5 1.8m.2 17.5c0 6.3.1 8.9.3 5.7.2-3.1.2-8.3 0-11.5-.2-3.1-.3-.5-.3 5.8m-.1 28c0 2.5.2 3.5.4 2.2.2-1.2.2-3.2 0-4.5-.2-1.2-.4-.2-.4 2.3M874 381.4c0 .2.8 1 1.8 1.7 1.5 1.3 1.6 1.2.3-.4s-2.1-2.1-2.1-1.3m-421.9 24.2c0 1.1.3 1.4.6.6.3-.7.2-1.6-.1-1.9-.3-.4-.6.2-.5 1.3m266.2 6.9c0 2.2.2 3 .4 1.7.2-1.2.2-3 0-4-.3-.9-.5.1-.4 2.3m208.6 21.2c-1.3 1.6-1.2 1.7.4.4.9-.7 1.7-1.5 1.7-1.7 0-.8-.8-.3-2.1 1.3M690 505.4c0 .2.8 1 1.8 1.7 1.5 1.3 1.6 1.2.3-.4s-2.1-2.1-2.1-1.3m-1 10c0 .2.8 1 1.8 1.7 1.5 1.3 1.6 1.2.3-.4s-2.1-2.1-2.1-1.3M909.4 544c0 15.7.2 22.1.3 14.2.2-7.8.2-20.6 0-28.5-.1-7.8-.3-1.4-.3 14.3m-214.9-23c1 1.1 2 2 2.3 2s-.3-.9-1.3-2-2-2-2.3-2 .3.9 1.3 2m-246.8 62.7c1.8.2 5 .2 7 0 2.1-.2.7-.4-3.2-.4-3.8 0-5.5.2-3.8.4m28.1 0c3.9.2 10.5.2 14.5 0 3.9-.1.7-.3-7.3-.3s-11.2.2-7.2.3m246.5 6.8c0 3.3.2 4.5.4 2.7s.2-4.5 0-6-.4 0-.4 3.3m-56.2-1.9c0 1.1.3 1.4.6.6.3-.7.2-1.6-.1-1.9-.3-.4-.6.2-.5 1.3M478 674.4c0 .2.8 1 1.8 1.7 1.5 1.3 1.6 1.2.3-.4s-2.1-2.1-2.1-1.3M377.2 819c0 1.9.2 2.7.5 1.7.2-.9.2-2.5 0-3.5-.3-.9-.5-.1-.5 1.8m165.2 19c0 12.4.2 17.4.3 11.2.2-6.1.2-16.3 0-22.5-.1-6.1-.3-1.1-.3 11.3m79.1 31c0 29.4.1 41.5.2 26.7.2-14.7.2-38.7 0-53.5-.1-14.7-.2-2.6-.2 26.8m-272-4.5c0 26.4.1 37.1.2 23.7.2-13.4.2-35 0-48-.1-13-.2-2.1-.2 24.3m117.9-19c0 15.4.2 21.6.3 13.7.2-7.9.2-20.5 0-28-.1-7.5-.3-1.1-.3 14.3m270.8 24.2-.2 52.2-12.7.4-12.8.3 12.8.2c9.4.1 12.9-.1 13.2-1.1.3-.6.4-24.4.3-52.7l-.3-51.5zm28.2-38.5-1.9 2.3 2.3-1.9c1.2-1.1 2.2-2.1 2.2-2.3 0-.8-.8-.2-2.6 1.9m81.6-1.8c0 .2.8 1 1.8 1.7 1.5 1.3 1.6 1.2.3-.4s-2.1-2.1-2.1-1.3m-659.8 51.8-.2 40.7-14.2.4-14.3.3 14.3.2c10.7.1 14.4-.1 14.7-1.1.3-.6.4-19.2.2-41.2l-.2-40zM904 867.4c0 .2.7.7 1.6 1 .8.3 1.2.2.9-.4-.6-1-2.5-1.4-2.5-.6m.2 5.6c0 1.9.2 2.7.5 1.7.2-.9.2-2.5 0-3.5-.3-.9-.5-.1-.5 1.8m-40.1 2.6c0 1.1.3 1.4.6.6.3-.7.2-1.6-.1-1.9-.3-.4-.6.2-.5 1.3m-151.8 4.9c0 3.3.2 4.5.4 2.7s.2-4.5 0-6-.4 0-.4 3.3m422 9c0 2.7.2 3.8.4 2.2.2-1.5.2-3.7 0-5-.2-1.2-.4 0-.4 2.8m-422 7c0 4.4.2 6.1.4 3.7.2-2.3.2-5.9 0-8-.2-2-.4-.1-.4 4.3m192-1c0 2.2.2 3 .4 1.7.2-1.2.2-3 0-4-.3-.9-.5.1-.4 2.3m-362.1 14.7-.2 11.7-13.2.4-13.3.3 13.3.2c10.2.1 13.4-.1 13.8-1.1.2-.7.3-6.2.1-12.3l-.3-10.9zM377.4 913c0 5.2.1 7.4.3 4.7.2-2.6.2-6.8 0-9.5-.2-2.6-.3-.4-.3 4.8m756.9-1c0 4.7.2 6.6.4 4.2.2-2.3.2-6.1 0-8.5-.2-2.3-.4-.4-.4 4.3m-422 1c0 4.7.2 6.6.4 4.2.2-2.3.2-6.1 0-8.5-.2-2.3-.4-.4-.4 4.3m136.6-5.3-2.4 2.8 2.8-2.4c1.5-1.4 2.7-2.6 2.7-2.8 0-.8-.8-.1-3.1 2.4m139.4 6.3c0 2.5.2 3.5.4 2.2.2-1.2.2-3.2 0-4.5-.2-1.2-.4-.2-.4 2.3m-639.2.6c0 1.1.3 1.4.6.6.3-.7.2-1.6-.1-1.9-.3-.4-.6.2-.5 1.3m-.1 4.8c0 1.4.4 2.7.8 3 .5.3.6-.8.4-2.5-.5-3.5-1.2-3.8-1.2-.5m639.9 2.9c.4.4 18 .6 39.2.5l38.4-.3-39.2-.5c-21.6-.3-38.9-.2-38.4.3m133.1-.3-12.5.6 12.2.2c7.3.1 12.4-.2 12.8-.8.3-.6.5-.9.3-.8s-5.9.5-12.8.8m-874.2.7c2.3.2 5.9.2 8 0 2-.2.1-.4-4.3-.4s-6.1.2-3.7.4m59 0c2.3.2 6.1.2 8.5 0 2.3-.2.4-.4-4.3-.4s-6.6.2-4.2.4m15.5 0c1.5.2 3.7.2 5 0 1.2-.2 0-.4-2.8-.4-2.7 0-3.8.2-2.2.4m32.5 0c1.8.2 4.5.2 6 0s0-.4-3.3-.4-4.5.2-2.7.4m15 0c1.2.2 3.2.2 4.5 0 1.2-.2.2-.4-2.3-.4s-3.5.2-2.2.4m35.5 0c3.7.2 9.6.2 13 0s.4-.3-6.8-.3c-7.1 0-9.9.1-6.2.3m72 0c3.1.2 8.3.2 11.5 0 3.1-.2.5-.3-5.8-.3s-8.9.1-5.7.3m111 0c4.3.2 11 .2 15 0 4-.1.5-.3-7.8-.3-8.2 0-11.5.2-7.2.3m41.5 0c2.9.2 7.4.2 10 0s.2-.3-5.3-.3-7.6.1-4.7.3m256 0c3.4.2 9 .2 12.5 0 3.4-.2.6-.3-6.3-.3s-9.7.1-6.2.3m67.5 0c1.5.2 3.7.2 5 0 1.2-.2 0-.4-2.8-.4-2.7 0-3.8.2-2.2.4m11.5 0c.6.2 1.8.2 2.5 0 .6-.3.1-.5-1.3-.5s-1.9.2-1.2.5m-608 29c.6.2 1.8.2 2.5 0 .6-.3.1-.5-1.3-.5s-1.9.2-1.2.5m-100.4 11 12.5.4.4 3.2c.5 3.1.5 3.1.3-.3l-.1-3.5h-12.8l-12.7-.1zm48.2.1c-.2.4 1.3.6 3.5.4 2.1-.2 3.9-.6 3.9-.8 0-.7-6.9-.4-7.4.4m16.2-.1c.6.2 1.8.2 2.5 0 .6-.3.1-.5-1.3-.5s-1.9.2-1.2.5m25.8.2c-.3.4.6.6 1.9.3 1.4-.2 2.5-.6 2.5-.8 0-.8-3.9-.4-4.4.5m85.2-.2c1.2.2 3.2.2 4.5 0 1.2-.2.2-.4-2.3-.4s-3.5.2-2.2.4m18.5 0c.9.2 2.3.2 3 0 .6-.3-.1-.5-1.8-.5-1.6 0-2.2.2-1.2.5m10.5 0c1.2.2 3.2.2 4.5 0 1.2-.2.2-.4-2.3-.4s-3.5.2-2.2.4m40 0c1.2.2 3.2.2 4.5 0 1.2-.2.2-.4-2.3-.4s-3.5.2-2.2.4m27 0c1.2.2 3 .2 4 0 .9-.3-.1-.5-2.3-.4-2.2 0-3 .2-1.7.4m26 0c1.2.2 3 .2 4 0 .9-.3-.1-.5-2.3-.4-2.2 0-3 .2-1.7.4m25 0c1.2.2 3 .2 4 0 .9-.3-.1-.5-2.3-.4-2.2 0-3 .2-1.7.4m55.5 0c2.6.2 6.8.2 9.5 0 2.6-.2.4-.3-4.8-.3s-7.4.1-4.7.3m47 0c1.5.2 3.7.2 5 0 1.2-.2 0-.4-2.8-.4-2.7 0-3.8.2-2.2.4m43.3.1c-.2.4 1.3.6 3.5.4 2.1-.2 3.9-.6 3.9-.8 0-.7-6.9-.4-7.4.4m53.7-.1c2 .2 5.4.2 7.5 0 2-.2.3-.4-3.8-.4s-5.8.2-3.7.4m48.5 0c2.3.2 5.9.2 8 0 2-.2.1-.4-4.3-.4s-6.1.2-3.7.4m30.9 0c-.3.5 1.6.7 4.1.5 7.3-.5 8.2-1 2-1.1-3.1 0-5.9.2-6.1.6m16.1 0c.7.3 1.6.2 1.9-.1.4-.3-.2-.6-1.3-.5-1.1 0-1.4.3-.6.6m32 0c1.2.2 3 .2 4 0 .9-.3-.1-.5-2.3-.4-2.2 0-3 .2-1.7.4m23 0c.6.2 1.8.2 2.5 0 .6-.3.1-.5-1.3-.5s-1.9.2-1.2.5m8.5 0c2.6.2 6.8.2 9.5 0 2.6-.2.4-.3-4.8-.3s-7.4.1-4.7.3m15.4 0c-.3.5 3.2.7 7.6.5 14.7-.5 16.4-.8 4.5-1-6.4-.1-11.9.1-12.1.5m134.3-.3c0 .2 1.3.6 2.9.8 1.7.2 2.8.1 2.5-.4-.5-.8-5.4-1.2-5.4-.4m-66.7 7.6c0 4.1.2 5.8.4 3.7.2-2 .2-5.4 0-7.5-.2-2-.4-.3-.4 3.8m-444.1-4c0 1.4.2 1.9.5 1.2.2-.6.2-1.8 0-2.5-.3-.6-.5-.1-.5 1.3m80 .5c0 1.6.2 2.2.5 1.2.2-.9.2-2.3 0-3-.3-.6-.5.1-.5 1.8m353.8-1.1c0 .2.8 1 1.8 1.7 1.5 1.3 1.6 1.2.3-.4s-2.1-2.1-2.1-1.3m-635.1 2.3c-1.3 1.6-1.2 1.7.4.4s2.1-2.1 1.3-2.1c-.2 0-1 .8-1.7 1.7m232.9 2c.6.2 1.8.2 2.5 0 .6-.3.1-.5-1.3-.5s-1.9.2-1.2.5M324.4 985c0 8.5.2 12 .3 7.7.2-4.2.2-11.2 0-15.5-.1-4.2-.3-.7-.3 7.8m111.9-11.5c0 2.2.2 3 .4 1.7.2-1.2.2-3 0-4-.3-.9-.5.1-.4 2.3m201.9-.5c0 1.9.2 2.7.5 1.7.2-.9.2-2.5 0-3.5-.3-.9-.5-.1-.5 1.8m48.1 2.5c0 3.3.2 4.5.4 2.7s.2-4.5 0-6-.4 0-.4 3.3m156.1 9.5c0 8.5.2 12 .3 7.7.2-4.2.2-11.2 0-15.5-.1-4.2-.3-.7-.3 7.8m91.9-10c0 3 .2 4.3.4 2.7.2-1.5.2-3.9 0-5.5-.2-1.5-.4-.2-.4 2.8m18.1 4.5c0 5.5.1 7.6.3 4.7s.2-7.4 0-10-.3-.2-.3 5.3m-253.3-3.9c0 1.1.3 1.4.6.6.3-.7.2-1.6-.1-1.9-.3-.4-.6.2-.5 1.3m-447.4 1.6c.2.5 3.7.8 7.8.8h7.4l.4 3.2c.4 3.3.4 3.3.3-.2l-.1-3.5-8.2-.5c-4.4-.3-7.9-.2-7.6.2m391.1.5c2.3.2 5.9.2 8 0 2-.2.1-.4-4.3-.4s-6.1.2-3.7.4m132.9 0c1.8.2 5 .2 7 0 2.1-.2.7-.4-3.2-.4-3.8 0-5.5.2-3.8.4m190.1 0c1.7.2 4.7.2 6.5 0 1.7-.2.3-.4-3.3-.4s-5 .2-3.2.4m-525.1 1c1.8.2 5 .2 7 0 2.1-.2.7-.4-3.2-.4-3.8 0-5.5.2-3.8.4m41.7.6c-.2.7-.3 5.8-.2 11.3l.3 9.9.5-11.3c.3-6.1.4-11.2.2-11.2-.1 0-.5.6-.8 1.3m538 9.7c0 6.3.1 8.9.3 5.7.2-3.1.2-8.3 0-11.5-.2-3.1-.3-.5-.3 5.8m-800.2-6c0 1.9.2 2.7.5 1.7.2-.9.2-2.5 0-3.5-.3-.9-.5-.1-.5 1.8m157.9-1.4c0 1.1.3 1.4.6.6.3-.7.2-1.6-.1-1.9-.3-.4-.6.2-.5 1.3m620.1 1.4c0 1.9.2 2.7.5 1.7.2-.9.2-2.5 0-3.5-.3-.9-.5-.1-.5 1.8m-10 0c0 1.4.2 1.9.5 1.2.2-.6.2-1.8 0-2.5-.3-.6-.5-.1-.5 1.3m-53.9 9c0 4.7.2 6.6.4 4.2.2-2.3.2-6.1 0-8.5-.2-2.3-.4-.4-.4 4.3m-498-2c0 2.5.2 3.5.4 2.2.2-1.2.2-3.2 0-4.5-.2-1.2-.4-.2-.4 2.3m-185.2 1.6c0 1.1.3 1.4.6.6.3-.7.2-1.6-.1-1.9-.3-.4-.6.2-.5 1.3m435.2 3.4c0 3 .2 4.3.4 2.7.2-1.5.2-3.9 0-5.5-.2-1.5-.4-.2-.4 2.8"/><path fill="gray" d="M574.3 177.7c7.5.2 19.9.2 27.5 0 7.5-.1 1.3-.3-13.8-.3s-21.3.2-13.7.3m41 60.3c0 2.5.2 3.5.4 2.2.2-1.2.2-3.2 0-4.5-.2-1.2-.4-.2-.4 2.3m-199.1 4.7c25.8.2 67.8.2 93.5 0 25.8-.1 4.7-.2-46.7-.2s-72.5.1-46.8.2m335 74.8c0 1.6.2 2.2.5 1.2.2-.9.2-2.3 0-3-.3-.6-.5.1-.5 1.8m-203 2.5c0 1.4.2 1.9.5 1.2.2-.6.2-1.8 0-2.5-.3-.6-.5-.1-.5 1.3m203.1 16.5c0 3.8.2 5.3.4 3.2.2-2 .2-5.2 0-7-.2-1.7-.4-.1-.4 3.8m-368 8.2c7.6.2 19.8.2 27 0 7.3-.1 1.1-.3-13.8-.3-14.8 0-20.8.2-13.2.3m165 5.8c0 3.8.2 5.3.4 3.2.2-2 .2-5.2 0-7-.2-1.7-.4-.1-.4 3.8m66.9 35c0 1.6.2 2.2.5 1.2.2-.9.2-2.3 0-3-.3-.6-.5.1-.5 1.8m-.1 79.1c0 1.1.3 1.4.6.6.3-.7.2-1.6-.1-1.9-.3-.4-.6.2-.5 1.3m294.2 25.9c0 2.2.2 3 .4 1.7.2-1.2.2-3 0-4-.3-.9-.5.1-.4 2.3m.1 15.5c0 5.8.1 8.1.3 5.2.2-2.8.2-7.6 0-10.5-.2-2.8-.3-.5-.3 5.3m-448.6 77.7c1.8.2 4.5.2 6 0s0-.4-3.3-.4-4.5.2-2.7.4M445.2 600c0 1.4.2 1.9.5 1.2.2-.6.2-1.8 0-2.5-.3-.6-.5-.1-.5 1.3m27.8 69.4c0 .2.8 1 1.8 1.7 1.5 1.3 1.6 1.2.3-.4s-2.1-2.1-2.1-1.3M212.8 815.7c.6.2 1.8.2 2.5 0 .6-.3.1-.5-1.3-.5s-1.9.2-1.2.5m26.5 0c1.5.2 3.7.2 5 0 1.2-.2 0-.4-2.8-.4-2.7 0-3.8.2-2.2.4m118 0c1.5.2 3.7.2 5 0 1.2-.2 0-.4-2.8-.4-2.7 0-3.8.2-2.2.4m170.5 0c.6.2 1.8.2 2.5 0 .6-.3.1-.5-1.3-.5s-1.9.2-1.2.5m471 0c1.8.2 4.5.2 6 0s0-.4-3.3-.4-4.5.2-2.7.4m31.5 0c1.5.2 3.7.2 5 0 1.2-.2 0-.4-2.8-.4-2.7 0-3.8.2-2.2.4m-727.9 19.8c0 11 .2 15.6.3 10.3.2-5.3.2-14.3 0-20-.1-5.7-.3-1.3-.3 9.7m642 7.5c0 15.1.2 21.3.3 13.7.2-7.5.2-19.9 0-27.5-.1-7.5-.3-1.3-.3 13.8m-722.1-20.5c0 3.3.2 4.5.4 2.7s.2-4.5 0-6-.4 0-.4 3.3M838.2 870c0 1.9.2 2.7.5 1.7.2-.9.2-2.5 0-3.5-.3-.9-.5-.1-.5 1.8m-126 3c0 1.4.2 1.9.5 1.2.2-.6.2-1.8 0-2.5-.3-.6-.5-.1-.5 1.3m192.1 11c0 4.7.2 6.6.4 4.2.2-2.3.2-6.1 0-8.5-.2-2.3-.4-.4-.4 4.3m-192.2 3.6c0 1.1.3 1.4.6.6.3-.7.2-1.6-.1-1.9-.3-.4-.6.2-.5 1.3m-409.7 16.9c0 9.9.2 13.8.3 8.7.2-5.1.2-13.2 0-18-.1-4.8-.3-.6-.3 9.3M785 890.4c0 .2.8 1 1.8 1.7 1.5 1.3 1.6 1.2.3-.4s-2.1-2.1-2.1-1.3m119.4 19.1c0 6 .1 8.4.3 5.2s.2-8.1 0-11-.3-.3-.3 5.8m62.9 42.2c.9.2 2.3.2 3 0 .6-.3-.1-.5-1.8-.5-1.6 0-2.2.2-1.2.5m5 .8c0 .8.4 1.2.9.9s.6-1 .3-1.5c-.9-1.3-1.2-1.1-1.2.6m-658.5 10.2c1.2.2 3.2.2 4.5 0 1.2-.2.2-.4-2.3-.4s-3.5.2-2.2.4m12.5 0c1.5.2 3.7.2 5 0 1.2-.2 0-.4-2.8-.4-2.7 0-3.8.2-2.2.4m25.5 0c.7.3 1.6.2 1.9-.1.4-.3-.2-.6-1.3-.5-1.1 0-1.4.3-.6.6m89 0c1.8.2 4.5.2 6 0s0-.4-3.3-.4-4.5.2-2.7.4m35 0c.6.2 1.8.2 2.5 0 .6-.3.1-.5-1.3-.5s-1.9.2-1.2.5m172.7-.2c2.3.8 8.3 1 7.9.3-.3-.4-2.4-.8-4.7-.7-2.3 0-3.7.2-3.2.4m41.3.2c1.2.2 3 .2 4 0 .9-.3-.1-.5-2.3-.4-2.2 0-3 .2-1.7.4m73.6.6c-.2.7-.3 9.4-.2 19.2l.3 18 .5-19.3c.3-10.5.4-19.2.2-19.2-.1 0-.5.6-.8 1.3m5.4-.6c1.2.2 3.2.2 4.5 0 1.2-.2.2-.4-2.3-.4s-3.5.2-2.2.4m72.5 0c2 .2 5.4.2 7.5 0 2-.2.3-.4-3.8-.4s-5.8.2-3.7.4m28.5 0c.6.2 1.8.2 2.5 0 .6-.3.1-.5-1.3-.5s-1.9.2-1.2.5m153 0c1.2.2 3 .2 4 0 .9-.3-.1-.5-2.3-.4-2.2 0-3 .2-1.7.4M428.4 982c0 10.2.2 14.3.3 9.2.2-5 .2-13.4 0-18.5-.1-5-.3-.9-.3 9.3m250-.5c0 9.9.2 13.8.3 8.7.2-5.1.2-13.2 0-18-.1-4.8-.3-.6-.3 9.3M251.2 973c0 1.9.2 2.7.5 1.7.2-.9.2-2.5 0-3.5-.3-.9-.5-.1-.5 1.8m520 0c0 1.9.2 2.7.5 1.7.2-.9.2-2.5 0-3.5-.3-.9-.5-.1-.5 1.8m171.2 12c0 8.5.2 12 .3 7.7.2-4.2.2-11.2 0-15.5-.1-4.2-.3-.7-.3 7.8m-668.2-12c0 1.4.2 1.9.5 1.2.2-.6.2-1.8 0-2.5-.3-.6-.5-.1-.5 1.3m302.1 5c0 3.6.2 5 .4 3.2.2-1.7.2-4.7 0-6.5-.2-1.7-.4-.3-.4 3.3m-333-1.5c0 2.2.2 3 .4 1.7.2-1.2.2-3 0-4-.3-.9-.5.1-.4 2.3m73.1 12c0 6.6.1 9.2.3 5.7.2-3.4.2-8.8 0-12-.2-3.1-.3-.3-.3 6.3m-115.2-7c0 1.6.2 2.2.5 1.2.2-.9.2-2.3 0-3-.3-.6-.5.1-.5 1.8m633.2 7.5c0 5.8.1 8.1.3 5.2.2-2.8.2-7.6 0-10.5-.2-2.8-.3-.5-.3 5.3m-625.3-7.4c0 1.1.3 1.4.6.6.3-.7.2-1.6-.1-1.9-.3-.4-.6.2-.5 1.3M351 985l-4.5.7 4.2.1c2.3.1 4.5-.3 4.8-.8.3-.6.5-.9.3-.8-.2 0-2.3.4-4.8.8m-99.8 2.5c0 1.6.2 2.2.5 1.2.2-.9.2-2.3 0-3-.3-.6-.5.1-.5 1.8m276.1-1.8c1.5.2 3.7.2 5 0 1.2-.2 0-.4-2.8-.4-2.7 0-3.8.2-2.2.4m199.5 0c1.2.2 3.2.2 4.5 0 1.2-.2.2-.4-2.3-.4s-3.5.2-2.2.4m44.4 2.3c0 1.9.2 2.7.5 1.7.2-.9.2-2.5 0-3.5-.3-.9-.5-.1-.5 1.8m134.6-2.3c1.2.2 3.2.2 4.5 0 1.2-.2.2-.4-2.3-.4s-3.5.2-2.2.4m180 0c1.2.2 3.2.2 4.5 0 1.2-.2.2-.4-2.3-.4s-3.5.2-2.2.4m-863 1c1.2.2 3.2.2 4.5 0 1.2-.2.2-.4-2.3-.4s-3.5.2-2.2.4m124.5 6c2 .2 5.4.2 7.5 0 2-.2.3-.4-3.8-.4s-5.8.2-3.7.4m178.5 0c1.7.2 4.7.2 6.5 0 1.7-.2.3-.4-3.3-.4s-5 .2-3.2.4m199 0c1.8.2 4.5.2 6 0s0-.4-3.3-.4-4.5.2-2.7.4m178.9 0c1.8.2 5 .2 7 0 2.1-.2.7-.4-3.2-.4-3.8 0-5.5.2-3.8.4m177 0c-.3.5 1.8.7 4.6.5 9.2-.5 10.4-.9 3-1.1-3.9 0-7.4.2-7.6.6m-825.4 1c2 .2 5.4.2 7.5 0 2-.2.3-.4-3.8-.4s-5.8.2-3.7.4m386.4 0c1.8.2 5 .2 7 0 2.1-.2.7-.4-3.2-.4-3.8 0-5.5.2-3.8.4m135.1 0c2.3.2 6.1.2 8.5 0 2.3-.2.4-.4-4.3-.4s-6.6.2-4.2.4m187 0c1.8.2 4.5.2 6 0s0-.4-3.3-.4-4.5.2-2.7.4m14.4 3.3c0 1.9.2 2.7.5 1.7.2-.9.2-2.5 0-3.5-.3-.9-.5-.1-.5 1.8m-745.3-.3c-1.3 1.6-1.2 1.7.4.4.9-.7 1.7-1.5 1.7-1.7 0-.8-.8-.3-2.1 1.3"/><path fill="#d4d4d4" d="M559 180.7c0 1 .4 1.4.8.8s1.1-1.3 1.6-1.8c.5-.4.2-.7-.7-.7-1 0-1.7.8-1.7 1.7m-1.7 9.3c0 3 .2 4.3.4 2.7.2-1.5.2-3.9 0-5.5-.2-1.5-.4-.2-.4 2.8m245.9 55c0 1.4.2 1.9.5 1.2.2-.6.2-1.8 0-2.5-.3-.6-.5-.1-.5 1.3m-432.1 1.6c0 1.1.3 1.4.6.6.3-.7.2-1.6-.1-1.9-.3-.4-.6.2-.5 1.3M803.4 274c0 5.8.1 8.1.3 5.2.2-2.8.2-7.6 0-10.5-.2-2.8-.3-.5-.3 5.3m-246.1 33c0 4.1.2 5.8.4 3.7.2-2 .2-5.4 0-7.5-.2-2-.4-.3-.4 3.8m195.8-5.4c0 1.1.3 1.4.6.6.3-.7.2-1.6-.1-1.9-.3-.4-.6.2-.5 1.3m.2 12.4c0 3.6.2 5 .4 3.2.2-1.7.2-4.7 0-6.5-.2-1.7-.4-.3-.4 3.3m49.9-4c0 1.4.2 1.9.5 1.2.2-.6.2-1.8 0-2.5-.3-.6-.5-.1-.5 1.3m-176.9 3.7c-1.3.3-2.3 1.2-2.3 2.1 0 1.3.2 1.4.9.3.6-.9 1-1 1.2-.2.3.7 1.1.3 2.1-.9 1-1.1 1.4-1.9 1-1.9-.4.1-1.7.4-2.9.6m176.8.9c0 1.1.3 1.4.6.6.3-.7.2-1.6-.1-1.9-.3-.4-.6.2-.5 1.3m-178.7 16.9c0 4.9.1 7.1.3 4.8s.2-6.4 0-9-.3-.8-.3 4.2m128.9-1c0 4.4.2 6.1.4 3.7.2-2.3.2-5.9 0-8-.2-2-.4-.1-.4 4.3m235.9-5.5c0 1.4.2 1.9.5 1.2.2-.6.2-1.8 0-2.5-.3-.6-.5-.1-.5 1.3m-1.1 6.6c0 1.1.3 1.4.6.6.3-.7.2-1.6-.1-1.9-.3-.4-.6.2-.5 1.3M422.2 338c0 1.4.2 1.9.5 1.2.2-.6.2-1.8 0-2.5-.3-.6-.5-.1-.5 1.3m135.1 6c0 4.7.2 6.6.4 4.2.2-2.3.2-6.1 0-8.5-.2-2.3-.4-.4-.4 4.3m246-4.5c0 2.2.2 3 .4 1.7.2-1.2.2-3 0-4-.3-.9-.5.1-.4 2.3m183.8-.9c0 1.1.3 1.4.6.6.3-.7.2-1.6-.1-1.9-.3-.4-.6.2-.5 1.3M371 341.5c0 .8.4 1.5 1 1.5.5 0 .7-.7.4-1.5-.4-.8-.8-1.5-1-1.5s-.4.7-.4 1.5m48.5-.5c-.9 1.5-.1 2.3 2.1 1.8 1.5-.3 1.6-.4.1-1.6-1.1-.9-1.7-1-2.2-.2m333.5.5c0 .8.7 1.5 1.6 1.5 1.4 0 1.4-.3.4-1.5-.7-.8-1.4-1.5-1.6-1.5s-.4.7-.4 1.5m-63 4c1.9 1.9 3.6 3.5 3.9 3.5s-1-1.6-2.9-3.5-3.6-3.5-3.9-3.5 1 1.6 2.9 3.5m109.8-2.8c.7.3 1.6.2 1.9-.1.4-.3-.2-.6-1.3-.5-1.1 0-1.4.3-.6.6M480 347.5c-2.4 2.5-4.2 4.5-3.9 4.5s2.5-2 4.9-4.5 4.2-4.5 3.9-4.5-2.5 2-4.9 4.5m506.1-.9c0 1.1.3 1.4.6.6.3-.7.2-1.6-.1-1.9-.3-.4-.6.2-.5 1.3m-361.8 9.9c0 3.8.2 5.3.4 3.2.2-2 .2-5.2 0-7-.2-1.7-.4-.1-.4 3.8m360.8-2.9c0 1.1.3 1.4.6.6.3-.7.2-1.6-.1-1.9-.3-.4-.6.2-.5 1.3m-427.8 3.9c0 2.7.2 3.8.4 2.2.2-1.5.2-3.7 0-5-.2-1.2-.4 0-.4 2.8m296.7 1c0 .2.6.8 1.3 1.4 1 .8 1.4.7 1.4-.2 0-.8-.6-1.4-1.4-1.4-.7 0-1.3.1-1.3.2m130.1 2.1c0 1.1.3 1.4.6.6.3-.7.2-1.6-.1-1.9-.3-.4-.6.2-.5 1.3m-1 6c0 1.1.3 1.4.6.6.3-.7.2-1.6-.1-1.9-.3-.4-.6.2-.5 1.3m-122.1-.3c0 .2 1.5 1.6 3.3 3.3l3.2 2.9-2.9-3.3c-2.8-3-3.6-3.7-3.6-2.9m121.1 8.3c0 1.1.3 1.4.6.6.3-.7.2-1.6-.1-1.9-.3-.4-.6.2-.5 1.3m-460.2 5.1-3.4 3.8 3.8-3.4c2-1.9 3.7-3.6 3.7-3.8 0-.8-.8 0-4.1 3.4m127.6.3c2.1 2.2 4.1 4 4.4 4s-1.3-1.8-3.4-4-4.1-4-4.4-4 1.3 1.8 3.4 4m223.5-.5c1.9 1.9 3.6 3.5 3.9 3.5s-1-1.6-2.9-3.5-3.6-3.5-3.9-3.5 1 1.6 2.9 3.5m108.1 2.1c0 1.1.3 1.4.6.6.3-.7.2-1.6-.1-1.9-.3-.4-.6.2-.5 1.3m-1 7c0 1.1.3 1.4.6.6.3-.7.2-1.6-.1-1.9-.3-.4-.6.2-.5 1.3m-526 7c0 1.1.3 1.4.6.6.3-.7.2-1.6-.1-1.9-.3-.4-.6.2-.5 1.3m432.8 2.1c-1.3 1.6-1.2 1.7.4.4.9-.7 1.7-1.5 1.7-1.7 0-.8-.8-.3-2.1 1.3M453.2 402c0 1.4.2 1.9.5 1.2.2-.6.2-1.8 0-2.5-.3-.6-.5-.1-.5 1.3m524.9.6c0 1.1.3 1.4.6.6.3-.7.2-1.6-.1-1.9-.3-.4-.6.2-.5 1.3M717.2 406c0 1.4.2 1.9.5 1.2.2-.6.2-1.8 0-2.5-.3-.6-.5-.1-.5 1.3m-53.9 5.5c0 2.7.2 3.8.4 2.2.2-1.5.2-3.7 0-5-.2-1.2-.4 0-.4 2.8M508.2 410c0 1.4.2 1.9.5 1.2.2-.6.2-1.8 0-2.5-.3-.6-.5-.1-.5 1.3m-55 11.5c0 1.6.2 2.2.5 1.2.2-.9.2-2.3 0-3-.3-.6-.5.1-.5 1.8m412.7 1.2c-1.3 1.6-1.2 1.7.4.4s2.1-2.1 1.3-2.1c-.2 0-1 .8-1.7 1.7m-411.8 5.9c0 1.1.3 1.4.6.6.3-.7.2-1.6-.1-1.9-.3-.4-.6.2-.5 1.3m64.9 5.9c1.3 1.4 2.6 2.5 2.8 2.5.3 0-.5-1.1-1.8-2.5s-2.6-2.5-2.8-2.5c-.3 0 .5 1.1 1.8 2.5m334.9 2.2c-1.3 1.6-1.2 1.7.4.4.9-.7 1.7-1.5 1.7-1.7 0-.8-.8-.3-2.1 1.3m119.2 1.9c0 1.1.3 1.4.6.6.3-.7.2-1.6-.1-1.9-.3-.4-.6.2-.5 1.3m-415.9 1.9c0 1.6.2 2.2.5 1.2.2-.9.2-2.3 0-3-.3-.6-.5.1-.5 1.8m290.7 3.2c-1.3 1.6-1.2 1.7.4.4.9-.7 1.7-1.5 1.7-1.7 0-.8-.8-.3-2.1 1.3m124.2 1.9c0 1.1.3 1.4.6.6.3-.7.2-1.6-.1-1.9-.3-.4-.6.2-.5 1.3m-130.2 5.1c-1.3 1.6-1.2 1.7.4.4s2.1-2.1 1.3-2.1c-.2 0-1 .8-1.7 1.7m127.2 3.9c0 1.1.3 1.4.6.6.3-.7.2-1.6-.1-1.9-.3-.4-.6.2-.5 1.3m-68.2 7.6c-.5 1.8-.6 3.8-.1 3.4.7-.8 1.2-3.6.6-3.6-.2 0-.4.1-.5.2m-71.5 3-1.9 2.3 2.3-1.9c1.2-1.1 2.2-2.1 2.2-2.3 0-.8-.8-.2-2.6 1.9M474 468.5c1.3 1.4 2.6 2.5 2.8 2.5.3 0-.5-1.1-1.8-2.5s-2.6-2.5-2.8-2.5c-.3 0 .5 1.1 1.8 2.5m5.5 5.5c1 1.1 2 2 2.3 2s-.3-.9-1.3-2-2-2-2.3-2 .3.9 1.3 2m408.8 4.2c-1.1 1.9-1.3 3.9-.1 3.2.5-.3.7-.9.4-1.2s-.1-1.1.5-1.9c.6-.7.9-1.3.6-1.3s-.9.6-1.4 1.2m-71.4 1.5c-1.3 1.6-1.2 1.7.4.4.9-.7 1.7-1.5 1.7-1.7 0-.8-.8-.3-2.1 1.3M657 481.4c0 .2.7.7 1.6 1 .8.3 1.2.2.9-.4-.6-1-2.5-1.4-2.5-.6m40.5 30.6c2.1 2.2 4.1 4 4.4 4s-1.3-1.8-3.4-4-4.1-4-4.4-4 1.3 1.8 3.4 4m-16.9-2.2c-.3.5.1.9.9.9s1.2-.4.9-.9c-.3-.4-.7-.8-.9-.8s-.6.4-.9.8m105.7 5.9c.4.3.1 1.3-.6 2.2-1.1 1.4-1 1.4.5.2 1.6-1.2 1.6-3.1.1-3.1-.4 0-.3.3 0 .7m-229 21.3c0 4.7.2 6.6.4 4.2.2-2.3.2-6.1 0-8.5-.2-2.3-.4-.4-.4 4.3m144.3-4.7c.3 1 .9 1.5 1.2 1.2s0-1.1-.7-1.8c-1-.9-1.1-.8-.5.6m154.7 15.2c0 2.2.2 3 .4 1.7.2-1.2.2-3 0-4-.3-.9-.5.1-.4 2.3m.2 53.5c0 23.9.1 33.7.2 21.7.2-11.9.2-31.5 0-43.5-.1-11.9-.2-2.1-.2 21.8m-135.4-18.4c0 1.1.3 1.4.6.6.3-.7.2-1.6-.1-1.9-.3-.4-.6.2-.5 1.3m-275.8 8.9c0 3.3.2 4.5.4 2.7s.2-4.5 0-6-.4 0-.4 3.3m355.6-3.8c-1.3 1.6-1.2 1.7.4.4.9-.7 1.7-1.5 1.7-1.7 0-.8-.8-.3-2.1 1.3M667.3 596c0 3.6.2 5 .4 3.2.2-1.7.2-4.7 0-6.5-.2-1.7-.4-.3-.4 3.3m53.8 2.6c0 1.1.3 1.4.6.6.3-.7.2-1.6-.1-1.9-.3-.4-.6.2-.5 1.3m65.8 6.1c-1.3 1.6-1.2 1.7.4.4.9-.7 1.7-1.5 1.7-1.7 0-.8-.8-.3-2.1 1.3M446.2 606c0 1.4.2 1.9.5 1.2.2-.6.2-1.8 0-2.5-.3-.6-.5-.1-.5 1.3m219.9 1.6c0 1.1.3 1.4.6.6.3-.7.2-1.6-.1-1.9-.3-.4-.6.2-.5 1.3M447.2 614c0 1.4.2 1.9.5 1.2.2-.6.2-1.8 0-2.5-.3-.6-.5-.1-.5 1.3m.9 5.6c0 1.1.3 1.4.6.6.3-.7.2-1.6-.1-1.9-.3-.4-.6.2-.5 1.3m460.3 44.9c0 15.9.2 22.3.3 14.2.2-8.2.2-21.2 0-29-.1-7.8-.3-1.2-.3 14.8m-387.4-25c1.3 1.4 2.6 2.5 2.8 2.5.3 0-.5-1.1-1.8-2.5s-2.6-2.5-2.8-2.5c-.3 0 .5 1.1 1.8 2.5m127.4 3.7-1.9 2.3 2.3-1.9c2.1-1.8 2.7-2.6 1.9-2.6-.2 0-1.2 1-2.3 2.2M557.2 658c0 1.4.2 1.9.5 1.2.2-.6.2-1.8 0-2.5-.3-.6-.5-.1-.5 1.3m299.2 10c0 6.9.1 9.7.3 6.2.2-3.4.2-9 0-12.5-.2-3.4-.3-.6-.3 6.3M469 664.4c0 .2.8 1 1.8 1.7 1.5 1.3 1.6 1.2.3-.4s-2.1-2.1-2.1-1.3m12 12c0 .2.8 1 1.8 1.7 1.5 1.3 1.6 1.2.3-.4s-2.1-2.1-2.1-1.3m192.6 9.4c-.3.5.1.9.9.9s1.2-.4.9-.9c-.3-.4-.7-.8-.9-.8s-.6.4-.9.8m182.8 16.7c0 4.9.1 7.1.3 4.8s.2-6.4 0-9-.3-.8-.3 4.2m51.9 2.5c0 3 .2 4.3.4 2.7.2-1.5.2-3.9 0-5.5-.2-1.5-.4-.2-.4 2.8m-2.8 5c-.3.5-.1 1 .4 1 .6 0 1.1-.5 1.1-1 0-.6-.2-1-.4-1-.3 0-.8.4-1.1 1m-348.1 21c0 5.2.1 7.4.3 4.7.2-2.6.2-6.8 0-9.5-.2-2.6-.3-.4-.3 4.8m-.2 35.5c0 1.6.2 2.2.5 1.2.2-.9.2-2.3 0-3-.3-.6-.5.1-.5 1.8m-325 54.8c.1 5.1.2 5.1.5.9.2-2.3.8-4 1.3-3.7s1.1.1 1.4-.4-.3-1.1-1.4-1.4c-1.8-.5-2 0-1.8 4.6M418 817c-1.2.7-1 .9.7.7 1.2 0 1.9-.5 1.7-.9-.6-1-.6-1-2.4.2m97.5 52c0 29.4.1 41.5.2 26.7.2-14.7.2-38.7 0-53.5-.1-14.7-.2-2.6-.2 26.8m364 0c0 29.4.1 41.5.2 26.7.2-14.7.2-38.7 0-53.5-.1-14.7-.2-2.6-.2 26.8m268.2-51.5c.3.8.9 1.2 1.4.9 1.2-.7 1.1-1.1-.5-1.7-1-.4-1.3-.1-.9.8m-928.9.2c.7.3 1.6.2 1.9-.1.4-.3-.2-.6-1.3-.5-1.1 0-1.4.3-.6.6m36.2-.3c0 .2.7.6 1.5 1 .8.3 1.5.1 1.5-.4 0-.6-.7-1-1.5-1s-1.5.2-1.5.4m49 .6c0 .5.4 1 .9 1 .6 0 1.3-.5 1.6-1 .3-.6-.1-1-.9-1-.9 0-1.6.4-1.6 1m21.6-.3c.5.5 1.2 1.2 1.6 1.8s.8.2.8-.8c0-.9-.7-1.7-1.7-1.7-.9 0-1.2.3-.7.7m25.6 50 .3 50.8.2-49.9c.3-38.5.6-50.2 1.6-50.8.8-.5.7-.8-.5-.8-1.7 0-1.8 3-1.6 50.7m21.6-50c.7.3 1.6.2 1.9-.1.4-.3-.2-.6-1.3-.5-1.1 0-1.4.3-.6.6m95.6 7.8c0 4.9.1 7.1.3 4.8s.2-6.4 0-9-.3-.8-.3 4.2m22.4-7.8c.7.3 1.6.2 1.9-.1.4-.3-.2-.6-1.3-.5-1.1 0-1.4.3-.6.6m132.2 1c0 1 .4 1.4.8.8s1.1-1.3 1.6-1.8c.5-.4.2-.7-.7-.7-1 0-1.7.8-1.7 1.7m258-.2c0 .8.2 1.5.4 1.5s.6-.7 1-1.5c.3-.8.1-1.5-.4-1.5-.6 0-1 .7-1 1.5m14.8-.8c.7.3 1.6.2 1.9-.1.4-.3-.2-.6-1.3-.5-1.1 0-1.4.3-.6.6m51 0c.7.3 1.6.2 1.9-.1.4-.3-.2-.6-1.3-.5-1.1 0-1.4.3-.6.6m43.2 1c0 1 .4 1.4.8.8s1.1-1.3 1.6-1.8c.5-.4.2-.7-.7-.7-1 0-1.7.8-1.7 1.7m71-1.3c0 .2.7.9 1.5 1.6 1.2 1 1.5 1 1.5-.4 0-.9-.7-1.6-1.5-1.6s-1.5.2-1.5.4m10.6.5c-.4.5.3.7 1.4.4 2.3-.6 2.6-1.3.6-1.3-.8 0-1.7.4-2 .9m97.9.1c.4.6 1.1.8 1.6.5 1.4-.9 1.1-1.5-.7-1.5-.8 0-1.2.5-.9 1m-269 2.9c-.3.5-.2 1.2.3 1.5s.9-.1.9-.9c0-1.7-.3-1.9-1.2-.6M376.3 830c0 3.6.2 5 .4 3.2.2-1.7.2-4.7 0-6.5-.2-1.7-.4-.3-.4 3.3m196.3-3.2c-.3.5.1.9.9.9s1.2-.4.9-.9c-.3-.4-.7-.8-.9-.8s-.6.4-.9.8m24.3 7.9c-1.3 1.6-1.2 1.7.4.4.9-.7 1.7-1.5 1.7-1.7 0-.8-.8-.3-2.1 1.3M232.3 841c0 3 .2 4.3.4 2.7.2-1.5.2-3.9 0-5.5-.2-1.5-.4-.2-.4 2.8m359.6-.3c-1.3 1.6-1.2 1.7.4.4s2.1-2.1 1.3-2.1c-.2 0-1 .8-1.7 1.7m-460.6 0c3.1.2 8.3.2 11.5 0 3.1-.2.5-.3-5.8-.3s-8.9.1-5.7.3m22.5 0c1.2.2 3.2.2 4.5 0 1.2-.2.2-.4-2.3-.4s-3.5.2-2.2.4m42.5 0c4.8.2 12.6.2 17.5 0 4.8-.1.8-.3-8.8-.3s-13.6.2-8.7.3m180 5.3c0 3.6.2 5 .4 3.2.2-1.7.2-4.7 0-6.5-.2-1.7-.4-.3-.4 3.3m638.1-4.7c-.3.8-.4 4.7-.2 8.8l.3 7.4.5-8.8c.5-8.7.4-9.9-.6-7.4m14.4-.6c6.8.2 17.6.2 24 0 6.4-.1.9-.3-12.3-.3s-18.5.2-11.7.3m-442.9 7c-1.3 1.6-1.2 1.7.4.4s2.1-2.1 1.3-2.1c-.2 0-1 .8-1.7 1.7m-117.5 11.8c0 7.1.1 9.9.3 6.2s.2-9.6 0-13-.3-.4-.3 6.8m-236.1-2c0 3.8.2 5.3.4 3.2.2-2 .2-5.2 0-7-.2-1.7-.4-.1-.4 3.8m317.6-3.8c-1.3 1.6-1.2 1.7.4.4.9-.7 1.7-1.5 1.7-1.7 0-.8-.8-.3-2.1 1.3m30 1c-1.3 1.6-1.2 1.7.4.4s2.1-2.1 1.3-2.1c-.2 0-1 .8-1.7 1.7m-5 6c-1.3 1.6-1.2 1.7.4.4s2.1-2.1 1.3-2.1c-.2 0-1 .8-1.7 1.7M376.3 868c0 4.7.2 6.6.4 4.2.2-2.3.2-6.1 0-8.5-.2-2.3-.4-.4-.4 4.3m401 1.5c0 2.2.2 3 .4 1.7.2-1.2.2-3 0-4-.3-.9-.5.1-.4 2.3m86.8.1c0 1.1.3 1.4.6.6.3-.7.2-1.6-.1-1.9-.3-.4-.6.2-.5 1.3m-112 4c0 1.1.3 1.4.6.6.3-.7.2-1.6-.1-1.9-.3-.4-.6.2-.5 1.3M232.4 898c0 9.1.2 12.8.3 8.2.2-4.5.2-11.9 0-16.5-.1-4.5-.3-.8-.3 8.3m782-7c0 5.2.1 7.4.3 4.7.2-2.6.2-6.8 0-9.5-.2-2.6-.3-.4-.3 4.8m-638 3c0 5.8.1 8.1.3 5.2.2-2.8.2-7.6 0-10.5-.2-2.8-.3-.5-.3 5.3m173-3.8-1.9 2.3 2.3-1.9c1.2-1.1 2.2-2.1 2.2-2.3 0-.8-.8-.2-2.6 1.9m280 2-2.9 3.3 3.3-2.9c1.7-1.7 3.2-3.1 3.2-3.3 0-.8-.8-.1-3.6 2.9m97.2-.3c-.3.5.2 1.5 1.2 2.2 1.5 1.2 1.6 1.2.5-.2-.7-.9-1-1.9-.6-2.2.3-.4.4-.7 0-.7-.3 0-.8.4-1.1.9m-363.7 5.4c.6.8.7 1.8.3 2.2-.4.5-.1.5.6.1 1-.6 1-1.1.1-2.2-.6-.8-1.4-1.4-1.6-1.4-.3 0 0 .6.6 1.3m240.9 3.4c.6.2 1.8.2 2.5 0 .6-.3.1-.5-1.3-.5s-1.9.2-1.2.5m7 0c.6.2 1.8.2 2.5 0 .6-.3.1-.5-1.3-.5s-1.9.2-1.2.5m124.8 3.5c.3.5 1 .6 1.5.3 1.3-.9 1.1-1.2-.6-1.2-.8 0-1.2.4-.9.9m-168.4 3.5c.6.7 1.3 1.1 1.6.8s1.2.1 2.1.7c1.2 1 1.2.7-.2-.8-.9-1.1-2.4-2.1-3.2-2.1-1.1 0-1.2.4-.3 1.4m-83.2.7c0 .2.9.6 2 .9s1.8.1 1.4-.4c-.5-.9-3.4-1.3-3.4-.5m-110.1 2.9c.6.8.7 1.8.3 2.2-.4.5-.1.5.6.1 1-.6 1-1.1.1-2.2-.6-.8-1.4-1.4-1.6-1.4-.3 0 0 .6.6 1.3m-246.7 7.2c0 1.6.2 2.2.5 1.2.2-.9.2-2.3 0-3-.3-.6-.5.1-.5 1.8m621.3.4c-.3.5-.2 1.2.3 1.5s.9-.1.9-.9c0-1.7-.3-1.9-1.2-.6m183.1.6c-.3.8-.1 1.5.4 1.5.6 0 1-.7 1-1.5s-.2-1.5-.4-1.5-.6.7-1 1.5M347.5 955c.3.5 1.2.7 2 .3 2.1-.7 1.9-1.3-.6-1.3-1.1 0-1.8.4-1.4 1m621.4 1.7c-1.3 1.6-1.2 1.7.4.4.9-.7 1.7-1.5 1.7-1.7 0-.8-.8-.3-2.1 1.3M353 957c0 .5.9 1 2.1 1 1.1 0 1.7-.5 1.4-1-.3-.6-1.3-1-2.1-1s-1.4.4-1.4 1m.8 2.7c.7.3 1.6.2 1.9-.1.4-.3-.2-.6-1.3-.5-1.1 0-1.4.3-.6.6m608.5 0c.9.2 2.5.2 3.5 0 .9-.3.1-.5-1.8-.5s-2.7.2-1.7.5m34.5 3c.7.3 1.6.2 1.9-.1.4-.3-.2-.6-1.3-.5-1.1 0-1.4.3-.6.6M335.2 966c0 1.9.2 2.7.5 1.7.2-.9.2-2.5 0-3.5-.3-.9-.5-.1-.5 1.8m453 0c0 1.9.2 2.7.5 1.7.2-.9.2-2.5 0-3.5-.3-.9-.5-.1-.5 1.8m189 0c0 1.9.2 2.7.5 1.7.2-.9.2-2.5 0-3.5-.3-.9-.5-.1-.5 1.8m-731.9-1.3c.4.4 5.6.6 11.5.5s10.1.1 9.5.4c-1.8.8-1.6 2.4.2 2.4.8 0 1.5-.9 1.5-2 0-1.9-.7-2-11.7-2-6.4 0-11.3.3-11 .7m59.8 1.5c0 2.2.1 2.2.9.3.7-1.7.9-1.7.9-.3.1 2.2 2.1 2.4 2.1.3 0-1.2 2.3-1.5 12.8-1.8l12.7-.3-14.7-.2c-14.8-.2-14.8-.2-14.7 2m44.2-1.5c.9.2 2.3.2 3 0 .6-.3-.1-.5-1.8-.5-1.6 0-2.2.2-1.2.5m86 0c3.1.2 8.3.2 11.5 0 3.1-.2.5-.3-5.8-.3s-8.9.1-5.7.3m17.9 1.3c0 1.4.2 1.9.5 1.2.2-.6.2-1.8 0-2.5-.3-.6-.5-.1-.5 1.3m6.2 16c0 10.2.2 14.3.3 9.2.2-5 .2-13.4 0-18.5-.1-5-.3-.9-.3 9.3m3.1-16.8c1.1.7 2.2 1.1 2.5 1s.7 7.6 1 17l.6 17.3.2-18.3.2-18.2h-3.2c-3 .1-3.1.2-1.3 1.2m13.5.3c0 1.3.4 1.4 2.3.4 3.3-1.7 3.3-1.9.4-1.9q-2.7 0-2.7 1.5m25-.1c0 .9.7 1.2 2 .9 1.1-.3 2-.9 2-1.4s-.9-.9-2-.9-2 .6-2 1.4m5.4 16.6c0 10.2.2 14.3.3 9.2.2-5 .2-13.4 0-18.5-.1-5-.3-.9-.3 9.3m21.9-17.3c.9.2 2.3.2 3 0 .6-.3-.1-.5-1.8-.5-1.6 0-2.2.2-1.2.5m23.8 1.5c0 1.8.2 1.9.7.7.4-1 1.8-1.5 3.4-1.5 1.4.1 2.4-.2 2.2-.6-.3-.4-1.8-.8-3.5-.8-2.4 0-2.9.4-2.8 2.2m26.4-1.2c.3.5 1.2.7 2 .3 2.1-.7 1.9-1.3-.6-1.3-1.1 0-1.8.4-1.4 1m4.9 17c0 10.2.2 14.3.3 9.2.2-5 .2-13.4 0-18.5-.1-5-.3-.9-.3 9.3m46.9-13c0 3 .2 4.3.4 2.7.2-1.5.2-3.9 0-5.5-.2-1.5-.4-.2-.4 2.8m5.4-4.3c1.8.2 5 .2 7 0 2.1-.2.7-.4-3.2-.4-3.8 0-5.5.2-3.8.4m12.1 0c.7.3 1.6.2 1.9-.1.4-.3-.2-.6-1.3-.5-1.1 0-1.4.3-.6.6m3.9 1.3c.3 1.1 1.2 2 1.9 2 .8 0 1.4-.9 1.4-2 0-1.3-.7-2-1.9-2-1.4 0-1.8.5-1.4 2m11.7 16c0 10.2.2 14.3.3 9.2.2-5 .2-13.4 0-18.5-.1-5-.3-.9-.3 9.3m1.6-16.9c0 .7 1 .9 2.5.7l2.5-.5.3 17.6.2 17.6.3-18.3.2-18.2h-3c-1.6 0-3 .5-3 1.1m17.3-.4c2 .2 5.4.2 7.5 0 2-.2.3-.4-3.8-.4s-5.8.2-3.7.4m43.7.3c0 1.3 2 1.3 4 0 1.2-.8.9-1-1.2-1-1.6 0-2.8.4-2.8 1m39 .6c0 1.2.3 1.4 1.3.6.6-.6 2.8-1.2 4.7-1.5 3-.3 2.8-.4-1.2-.5-3.8-.2-4.8.1-4.8 1.4m15.3-.9c3.7.3 4.7.8 4.3 1.9-.3.8.1 1.4.9 1.4s1.5-.9 1.5-2c0-1.8-.6-2-5.7-1.8l-5.8.2zm43.4 1.3c.6 2.3 3.3 2.7 3.3.5 0-1.1 2.1-1.5 10.8-1.8l10.7-.3-12.7-.2c-12.2-.2-12.6-.1-12.1 1.8m26.7 0c0 1.1.6 2 1.3 2s1.3-.9 1.3-2-.6-2-1.3-2-1.3.9-1.3 2m11.4-1.3c1.2.2 3.2.2 4.5 0 1.2-.2.2-.4-2.3-.4s-3.5.2-2.2.4m11 0c.6.2 1.8.2 2.5 0 .6-.3.1-.5-1.3-.5s-1.9.2-1.2.5m32.6.2c.3.5 1.5.7 2.6.4 2.8-.7 2.5-1.3-.6-1.3-1.4 0-2.3.4-2 .9M925 966c0 1.1.5 2 1 2 .6 0 1-.7 1-1.5 0-1.2 1.7-1.5 9.5-1.5s9.5.3 9.5 1.5c0 .8.7 1.5 1.5 1.5s1.5-.9 1.5-2c0-1.9-.7-2-12-2s-12 .1-12 2m29-1.3c0 .5 4.3.6 9.5.5 8.2-.3 9.5-.2 9.5 1.2 0 .9.7 1.6 1.5 1.6s1.5-.9 1.5-2c0-1.9-.7-2-11-2-6 0-11 .3-11 .7m68.5.3c.3.5 1.5 1 2.6 1 1 0 1.9-.5 1.9-1 0-.6-1.2-1-2.6-1s-2.3.4-1.9 1m64.8-.3c.9.2 2.3.2 3 0 .6-.3-.1-.5-1.8-.5-1.6 0-2.2.2-1.2.5m-810.4 2c-1.3 1.6-1.2 1.7.4.4s2.1-2.1 1.3-2.1c-.2 0-1 .8-1.7 1.7m540.1-1.3c0 .2.8 1 1.8 1.7 1.5 1.3 1.6 1.2.3-.4s-2.1-2.1-2.1-1.3m191.5.5c-.3.5-.2 1.2.3 1.5s.9-.1.9-.9c0-1.7-.3-1.9-1.2-.6m-801.6 1.8c-1.3 1.6-1.2 1.7.4.4.9-.7 1.7-1.5 1.7-1.7 0-.8-.8-.3-2.1 1.3m91.5-.8c.4.6.2 1.8-.4 2.6-.7.8-.9 1.5-.4 1.5s.2.5-.6 1c-.9.6-1 1-.3 1 2.4 0 4.1-5.4 2.1-6.6-.7-.4-.8-.3-.4.5m103 .3c-.4.7-.4 1 .1.6.4-.4 1.5-.2 2.4.5 1.4 1.1 1.4 1 .2-.6-1.6-2-1.8-2.1-2.7-.5m662.7 1.4c2.6 2.8 2.8 2.9 2.5.9-.3-1.9-1.3-2.8-3.2-3.1-1.2-.2-1 .4.7 2.2m-718.5-.3c.3 1 .9 1.5 1.2 1.2s0-1.1-.7-1.8c-1-.9-1.1-.8-.5.6m-57.8.4c.7.3 1.6.2 1.9-.1.4-.3-.2-.6-1.3-.5-1.1 0-1.4.3-.6.6m518 0c.6.2 1.8.2 2.5 0 .6-.3.1-.5-1.3-.5s-1.9.2-1.2.5m-40.5 6.3c0 2.5.2 3.5.4 2.2.2-1.2.2-3.2 0-4.5-.2-1.2-.4-.2-.4 2.3m93 0c0 2.5.2 3.5.4 2.2.2-1.2.2-3.2 0-4.5-.2-1.2-.4-.2-.4 2.3m-514.7-1.7c.3 1 .9 1.5 1.2 1.2s0-1.1-.7-1.8c-1-.9-1.1-.8-.5.6m273.9-.4c-.3.5 0 1.3.6 1.7.7.4.9.3.5-.4-.3-.5 0-1.3.6-1.5.9-.4 1-.6.1-.6-.6-.1-1.4.3-1.8.8m322.8 3.1c0 2.5.2 3.5.4 2.2.2-1.2.2-3.2 0-4.5-.2-1.2-.4-.2-.4 2.3m67.2-3.1c-.3.5 0 1.3.6 1.7.8.5.9.3.4-.6-.6-1-.4-1.2.9-.7 1 .4 1.5.3 1.1-.3-.8-1.3-2.2-1.3-3-.1m52.5-.5c0 .2.8 1 1.8 1.7 1.5 1.3 1.6 1.2.3-.4s-2.1-2.1-2.1-1.3M707.2 975c0 1.4.2 1.9.5 1.2.2-.6.2-1.8 0-2.5-.3-.6-.5-.1-.5 1.3m379.8-1.6c0 .2.7.7 1.6 1 .8.3 1.2.2.9-.4-.6-1-2.5-1.4-2.5-.6m-207.9 2.2c0 1.1.3 1.4.6.6.3-.7.2-1.6-.1-1.9-.3-.4-.6.2-.5 1.3M559 977.4c0 .2.7.7 1.6 1 .8.3 1.2.2.9-.4-.6-1-2.5-1.4-2.5-.6m146 1.5c0 .6.4 1.3 1 1.6s.7-.1.4-.9c-.7-1.8-1.4-2.1-1.4-.7m81.2 2.1c0 1.9.2 2.7.5 1.7.2-.9.2-2.5 0-3.5-.3-.9-.5-.1-.5 1.8m90.7-1.3c-1.3 1.6-1.2 1.7.4.4s2.1-2.1 1.3-2.1c-.2 0-1 .8-1.7 1.7m-279.7 1.8c0 1.6.2 2.2.5 1.2.2-.9.2-2.3 0-3-.3-.6-.5.1-.5 1.8m52.5-.5c.3 1.1.9 2 1.4 2 .4 0 .7-.9.6-2s-.7-2-1.3-2c-.7 0-1 .8-.7 2m132 0c.3 1.1.9 2 1.3 2s1-.9 1.3-2c.4-1.5 0-2-1.3-2s-1.7.5-1.3 2m189.1-1.3c.6.2 1.8.2 2.5 0 .6-.3.1-.5-1.3-.5s-1.9.2-1.2.5m-733.7 1.9c0 1.1.3 1.4.6.6.3-.7.2-1.6-.1-1.9-.3-.4-.6.2-.5 1.3m133.1.4c0 1.4.2 1.9.5 1.2.2-.6.2-1.8 0-2.5-.3-.6-.5-.1-.5 1.3m616.9-.4c0 1.1.3 1.4.6.6.3-.7.2-1.6-.1-1.9-.3-.4-.6.2-.5 1.3m-299.3.1c1.2.2 3.2.2 4.5 0 1.2-.2.2-.4-2.3-.4s-3.5.2-2.2.4m179.5 0c.9.2 2.5.2 3.5 0 .9-.3.1-.5-1.8-.5s-2.7.2-1.7.5m73 4.8c0 3.3.2 4.5.4 2.7s.2-4.5 0-6-.4 0-.4 3.3m60.6-5.3c-.7 2.8-.5 3.8.7 3.8 1.6 0 1.9-2.6.4-3.5-.5-.3-1-.5-1.1-.3M765.3 988c0 2.5.2 3.5.4 2.2.2-1.2.2-3.2 0-4.5-.2-1.2-.4-.2-.4 2.3m-78-.3c.9.2 2.5.2 3.5 0 .9-.3.1-.5-1.8-.5s-2.7.2-1.7.5m178.7-.3c0 .2 1.5.6 3.4.8s3.2 0 3-.4c-.5-.8-6.4-1.2-6.4-.4m-296.5 1.5c-.3.5-.2 1.2.3 1.5s.9-.1.9-.9c0-1.7-.3-1.9-1.2-.6m-320.4 1.7c0 1.1.3 1.4.6.6.3-.7.2-1.6-.1-1.9-.3-.4-.6.2-.5 1.3m303.2 2.9c0 2.7.2 3.8.4 2.2.2-1.5.2-3.7 0-5-.2-1.2-.4 0-.4 2.8M277.5 991c-.4.6-1 .8-1.4.6-.4-.3-.8.1-.8.8 0 1.1.4 1.2 1.9.3 1-.7 1.8-1.5 1.8-1.9 0-1.1-.8-1-1.5.2m787.5 1.1c0 .5.5.7 1 .4.6-.3 1-.8 1-1.1 0-.2-.4-.4-1-.4-.5 0-1 .5-1 1.1M630.3 996c0 2.5.2 3.5.4 2.2.2-1.2.2-3.2 0-4.5-.2-1.2-.4-.2-.4 2.3m163.2-3.1c-.3.5-.2 1.2.3 1.5s.9-.1.9-.9c0-1.7-.3-1.9-1.2-.6m64.7 2.1c0 1.9.2 2.7.5 1.7.2-.9.2-2.5 0-3.5-.3-.9-.5-.1-.5 1.8m-651.2.5c1.3 1.4 2.6 2.5 2.8 2.5.3 0-.5-1.1-1.8-2.5s-2.6-2.5-2.8-2.5c-.3 0 .5 1.1 1.8 2.5m733.2 0c0 1.6.2 2.2.5 1.2.2-.9.2-2.3 0-3-.3-.6-.5.1-.5 1.8m-652.4-.8c.7.3 1.6.2 1.9-.1.4-.3-.2-.6-1.3-.5-1.1 0-1.4.3-.6.6m115.1 1c-1.3 1.6-1.2 1.7.4.4.9-.7 1.7-1.5 1.7-1.7 0-.8-.8-.3-2.1 1.3m191.1-1.3c0 .2.8 1 1.8 1.7 1.5 1.3 1.6 1.2.3-.4s-2.1-2.1-2.1-1.3m62.2 2.6c0 1.9.2 2.7.5 1.7.2-.9.2-2.5 0-3.5-.3-.9-.5-.1-.5 1.8m381.8-2.6c0 .2.8 1 1.8 1.7 1.5 1.3 1.6 1.2.3-.4s-2.1-2.1-2.1-1.3m26.4 1.8-1.9 2.3 2.3-1.9c2.1-1.8 2.7-2.6 1.9-2.6-.2 0-1.2 1-2.3 2.2m-276.2.8c0 1.4.2 1.9.5 1.2.2-.6.2-1.8 0-2.5-.3-.6-.5-.1-.5 1.3m-569.9 3.7c1.5.2 3.7.2 5 0 1.2-.2 0-.4-2.8-.4-2.7 0-3.8.2-2.2.4m67.5 0c1.2.2 3.2.2 4.5 0 1.2-.2.2-.4-2.3-.4s-3.5.2-2.2.4m102 0c1.2.2 3.2.2 4.5 0 1.2-.2.2-.4-2.3-.4s-3.5.2-2.2.4m219 0c1.2.2 3.2.2 4.5 0 1.2-.2.2-.4-2.3-.4s-3.5.2-2.2.4m198 0c1.2.2 3.2.2 4.5 0 1.2-.2.2-.4-2.3-.4s-3.5.2-2.2.4m192 0c1.2.2 3.2.2 4.5 0 1.2-.2.2-.4-2.3-.4s-3.5.2-2.2.4m53.5 0c1.5.2 3.7.2 5 0 1.2-.2 0-.4-2.8-.4-2.7 0-3.8.2-2.2.4"/><g fill="#fff" stroke-width="0"><path d="M558 210.5V243H370v101l26.8-.1c14.7-.1 25.7-.4 24.4-.6-2.5-.5-2.5-3-.1-2.6.9.2 1.5-.6 1.5-2 0-1.2.1-10.9.2-21.5l.2-19.2h135l.2 73.7.3 73.7 27 9.7c14.9 5.4 27.6 9.8 28.3 9.8.9.1 1.2-17.2 1.2-83.4V298h137v46h51.6l-.1-48.8c-.1-26.8-.3-49.5-.3-50.5-.2-1.6-5.4-1.7-94.2-1.7h-94v-65h-57zm3.4-30.8c-.5.5-1.2 1.2-1.6 1.8s-.8.2-.8-.8c0-.9.7-1.7 1.7-1.7.9 0 1.2.3.7.7m-189.7 67.5c-.3.8-.6.5-.6-.6-.1-1.1.2-1.7.5-1.3.3.3.4 1.2.1 1.9m382 55c-.3.8-.6.5-.6-.6-.1-1.1.2-1.7.5-1.3.3.3.4 1.2.1 1.9m0 15c-.2 1.8-.4.4-.4-3.2s.2-5 .4-3.3c.2 1.8.2 4.8 0 6.5m0 17c-.2 2.4-.4.7-.4-3.7s.2-6.3.4-4.3c.2 2.1.2 5.7 0 8m-381.3 7.3c.3.8.1 1.5-.4 1.5-.6 0-1-.7-1-1.5s.2-1.5.4-1.5.6.7 1 1.5m382.6 0c1 1.2 1 1.5-.4 1.5-.9 0-1.6-.7-1.6-1.5s.2-1.5.4-1.5.9.7 1.6 1.5m46.7 1.1c-.3.3-1.2.4-1.9.1-.8-.3-.5-.6.6-.6 1.1-.1 1.7.2 1.3.5"/><path d="M626.3 313.7c1.9.5 2.2 1.8.7 2.8-.5.3-1 0-1-.7 0-.9-.2-1-.8-.1-.4.6-.7 11.8-.6 24.8l.2 23.7 6.9 3c13.4 5.6 26.1 18.9 29.9 31.2.8 2.8 1.8 7.9 2.1 11.3l.6 6.3H718v-2.3c0-4.2-2.1-20.1-3.1-24.4-.7-2.5-1.6-4-2.2-3.6s-.7.1-.3-.6c1-1.6-.2-6.3-1.4-5.6-.5.3-.7-.1-.4-.9.7-1.8-5.4-14.9-6.6-14.1-.5.3-1.2 0-1.6-.6-.4-.8-.3-.9.4-.5s1.2.5 1.2.1c0-.8-5.2-8.5-5.7-8.5-.2 0-.1.5.3 1.2s.3.8-.5.4c-.6-.4-.9-1.2-.5-1.7.3-.6-3-4.7-7.4-9.1s-8.5-7.7-9.1-7.4c-.5.4-1.3.1-1.7-.5-.4-.8-.3-.9.4-.5s1.2.5 1.2.3c0-1-12.3-8.8-19.9-12.7-9.3-4.6-26.3-10.5-32.6-11.2-2.2-.3-3.2-.3-2.2-.1m-94.3 4.2c-21.1 7-37 16.2-50.4 29-9 8.8-14.1 15.9-19.7 27.4-6.2 13.1-8.2 22-8.2 37.2-.1 19.3 3.3 31.4 13.3 47.2 4 6.4 19.1 21.5 20.8 20.8.7-.2 1 0 .7.5-.8 1.3 13.1 10.4 14.6 9.4.8-.4 1-.3.5.5-1.3 2 25.2 13.9 62.4 28.1 54.2 20.7 67.1 26.4 78.6 34.6 17.2 12.2 24.6 27.9 22.9 48-2 24-13.7 42.7-33.9 53.9-6 3.3-17 6.8-18 5.7-.3-.3-.6-24.9-.6-54.8v-54.2l-15.2-6.7c-8.4-3.7-16.3-6.8-17.5-6.9-1.1 0-1.9-.4-1.7-.8.7-1-3.1-1.9-5.2-1.2q-1.95.6-.6-.3c.9-.7-1.1-1.9-6.8-4.1-4.5-1.8-8.5-3.2-9.1-3.2-.5 0-.9 25.7-.9 66.1v66.1l-3.2-.6c-1.8-.4-6.1-2-9.5-3.6-23.6-11-40.3-31.8-45.4-56.4-1-5-1.9-10.6-1.9-12.4V584h-52v8.7c0 17.7 3.8 35.9 10.5 50 4.9 10.4 8.7 16.2 15.8 24.6 6.1 7.1 20.7 18.9 22.5 18.2.7-.2 1.1-.1.7.4-.7 1.3 6.2 5.4 7.6 4.5.8-.4.9-.3.5.5-.9 1.4 21.5 12.4 25.6 12.5 1.4.1 2.4.4 2.2.8-.5.7 16.5 6.2 22.9 7.3l3.7.7V769h57l.2-28.1.3-28.1 9-2.3c5-1.3 12-3.4 15.8-4.9 10.3-3.9 24.8-11.6 24-12.9-.3-.6-.1-.7.5-.3 1.4.8 8.7-3.9 8.7-5.7.1-.6.7-1.1 1.4-.9 1.6.3 10.3-6.7 9.6-7.8-.3-.4.3-1.4 1.3-2.1 1.6-1.3 1.6-1.2.2.6-1.4 2-1.4 2 .7.1 1.3-1 2-2.4 1.6-3-.3-.6-.2-.8.2-.3.5.4 2.4-.7 4.2-2.5 3.2-3.1 4.5-5.7 2.1-4.2-.7.4-.8.3-.4-.5.4-.6 1.1-.9 1.6-.6 2 1.2 15.7-21.3 14.6-24.1-.3-.8-.2-1.3.3-1 2.4 1.5 8.5-21.5 10.1-37.9 1.2-11.7.9-18.9-1.1-31-1.7-10.3-7.4-26-9-24.9-.5.3-.6-.1-.4-.8.3-.8-1.1-4-3-7.3-4.1-6.7-6-9.1-4.9-6 .4 1.1.4 1.7 0 1.4-.4-.4-.8-1.6-1.1-2.8-.9-4.6-18.4-21.9-20.8-20.4-.6.3-.7.1-.3-.5 1.5-2.5-25.8-18.1-46.9-26.7-4.9-2-22-8.3-38-14.1-52.1-18.8-60.5-22.4-71.5-30.9-17.8-13.7-20.3-34.6-6.4-53.5 5.2-7.1 15.5-15 23.9-18.4l6-2.4.3-25.1.2-25.1-2.2.1c-1.3 0-7.5 1.7-13.8 3.8m162 350.4c0 .2-1 1.2-2.2 2.3l-2.3 1.9 1.9-2.3c1.8-2.1 2.6-2.7 2.6-1.9"/><path d="M985 321.1c-1.9.6-17.2 4.6-34 9s-43.8 11.9-60 16.6-31.2 9-33.2 9.5c-2.1.6-3.5 1.4-3.2 1.9s1 .6 1.6.3c.6-.4.8-.2.4.4-.3.6 6.6 9.1 15.8 19.2l16.5 18.1-10.2 12.1c-13.7 16.2-46.1 54-57.2 66.8-20.7 23.7-25.3 29.4-24.9 30.2.3.5.1.7-.4.6-1.3-.4-9.5 9-8.8 10.1.3.5-.1 1.4-.9 2.1s-1.5.9-1.5.5-.7-.2-1.5.5c-.9.7-1.7 1.1-1.9.9s-5.2-7.6-11.1-16.4c-26.4-38.9-46.4-66.7-47.7-65.9-.5.3-.7.1-.6-.5.2-.6-1.3-3.4-3.2-6.1l-3.5-5H656v56.6l4.6 2.2c2.5 1.2 5 1.9 5.6 1.6.7-.5.8-.2.3.6-.6 1-.4 1.2.9.7.9-.4 1.5-.3 1.2.2-.3.4 3 3.1 7.2 5.9 9.4 6.2 22.2 17.2 27.7 23.8 2.2 2.7 13.4 17.2 24.8 32.4 11.4 15.1 21.3 27.4 21.8 27.2.6-.1.8.2.5.7-.7 1 13.1 19.7 14.3 19.4.4-.1.8.4.8 1 0 1.4 11.3 16.7 12.3 16.7 1.7 0 95.1-115 94.4-116.2-.3-.5-.1-.7.4-.6 1.3.4 7.3-7.2 6.6-8.3-.3-.5 0-.8.8-.7.7.2 1.2-.3 1-1-.1-.6.2-1.1.7-1 1.2.4 6.2-6.2 5.6-7.2-.3-.4.3-1.4 1.3-2.1q2.25-1.95.3.3c-.7 1-1.1 1.8-.9 1.8.9 0 9-10.1 9.2-11.5.1-.8.6-1.8 1.1-2.2.4-.4.5-.1 0 .7-.6 1.1-.5 1.2.4.4.7-.6 1.4-2 1.6-3 .1-1.1.7-1.8 1.3-1.7 1.3.3 8.3-8.2 8.7-10.5.1-.9.7-1.6 1.2-1.5.4.1 4.2-4.1 8.3-9.2 4.1-5.2 8-9.4 8.6-9.4.6-.1 8 4.2 16.3 9.4 8.4 5.2 15.8 9.2 16.4 8.8.5-.3.7-.2.4.3-.5.9 8 7 8.7 6.3.4-.4 2.4-14.5 15.6-108.9 1.6-11.8 3.2-23 3.5-24.8.6-3.5.6-3.5-4.5-2.1m-15.3 134.1c-.3.8-.6.5-.6-.6-.1-1.1.2-1.7.5-1.3.3.3.4 1.2.1 1.9M659.5 482c.3.6-.1.7-.9.4-1.8-.7-2.1-1.4-.7-1.4.6 0 1.3.4 1.6 1"/><path d="M901 487.4c-4.1 5-15.7 19.3-25.7 31.7l-18.2 22.7-.3 85.1-.3 85.1h51.3l.6-76.3c.4-41.9.6-94.5.4-116.8l-.3-40.5zm6 222.6c0 .5-.5 1-1.1 1-.5 0-.7-.5-.4-1 .3-.6.8-1 1.1-1 .2 0 .4.4.4 1M800.4 815c-5.5.8-14.4 3.5-18.4 5.6-9.2 4.6-23.2 18.7-21.4 21.5q.6 1.05-.3.6c-1.3-.8-2.6 2-1.6 3.5.3.6.1.8-.4.5-2.4-1.5-5.6 11.5-5.6 22.8 0 15.7 4.6 27 15.2 37.6 7.3 7.3 15.5 11.8 26.1 14.5 8.9 2.2 25.1 1.5 34-1.5 7.7-2.7 16.3-7.9 15.3-9.4-.4-.6-.1-.7.6-.2 1.7 1 9.8-7.7 13.4-14.4 6.1-11.1 8.2-25.8 5.7-39.2-2.8-14.8-14.3-29.6-28.1-36.2-11-5.3-23.8-7.4-34.5-5.7m19.1 26.7c3.3 1.2 7 3.7 10.7 7.3 4.6 4.5 5.9 6.6 7.3 11.4 4.4 15.3-1.9 30.7-15.3 37.3-7.5 3.7-19.1 4-26.4.6-11.7-5.3-18.1-15.3-18.2-28.3 0-14.1 7.9-25 21.4-29.1 4.6-1.4 15.4-1 20.5.8m-49 66.3c1 1.1 1.6 2 1.3 2s-1.3-.9-2.3-2-1.6-2-1.3-2 1.3.9 2.3 2M126 828v12l11.3.2c6.1.1 13.8 0 17-.1l5.7-.3V922h28v-82h34v-24h-96zm94.7-10.4c-.3.3-1.2.4-1.9.1-.8-.3-.5-.6.6-.6 1.1-.1 1.7.2 1.3.5m13.6-.9c.9.2 1.5.9 1.1 1.4-.3.5-1 .7-1.5.4-1.2-.8-1.2-.7-1.3 55.7l-.1 47.8H259v-39h44v39h26V816h-26v42h-44v-42l-13.2.1c-7.3.1-12.5.3-11.5.6M258 818c0 .5-.7.7-1.5.4-.8-.4-1.5-.8-1.5-1s.7-.4 1.5-.4 1.5.4 1.5 1m48.5 0c-.3.5-1 1-1.6 1-.5 0-.9-.5-.9-1 0-.6.7-1 1.6-1 .8 0 1.2.4.9 1m21.5.7c0 1-.4 1.4-.8.8s-1.1-1.3-1.6-1.8c-.5-.4-.2-.7.7-.7 1 0 1.7.8 1.7 1.7m-.3 91.5c-.3.8-.6.5-.6-.6-.1-1.1.2-1.7.5-1.3.3.3.4 1.2.1 1.9m0 9.5c-.3 1-.5.4-.5-1.2 0-1.7.2-2.4.5-1.8.2.7.2 2.1 0 3M350 869v53h26.5V816H350zm3.3-51.2c-1 .6-1.3 12.3-1.6 50.8l-.2 49.9-.3-50.8c-.2-47.7-.1-50.7 1.6-50.7 1.2 0 1.3.3.5.8m21.4-.2c-.3.3-1.2.4-1.9.1-.8-.3-.5-.6.6-.6 1.1-.1 1.7.2 1.3.5M397 869v53h27l.2-28.9.3-29 10 12.2c5.4 6.7 16.2 19.7 23.8 28.9l13.8 16.8H495v-53l-.1-53h-26.4l.2 29.5c.1 30.1-.2 32.7-3.5 27.5-.7-1.2-1.6-1.9-2.1-1.6-.4.3-.8 0-.8-.7 0-1.1-35-45.3-41.1-52-2.5-2.6-2.9-2.7-13.4-2.7H397zm95.7-51.4c-.3.3-1.2.4-1.9.1-.8-.3-.5-.6.6-.6 1.1-.1 1.7.2 1.3.5M516 869v53h26v-11.8l.1-11.7 5.3-6c4.4-4.9 5.7-5.7 6.8-4.7.8.6 1.9.8 2.3.4.5-.4.5-.2.2.4-.6 1.1 5.7 10.4 7 10.4.3 0-.1-.8-.8-1.8q-1.95-2.25.3-.3c1 .7 1.5 1.7 1.2 2.2-.5.8 9.2 13.9 10.3 13.9.3 0-.1-.8-.8-1.8-1.3-1.5-1.2-1.6.3-.4.9.8 1.5 1.9 1.3 2.5-.2.7 1 2.9 2.8 5l3.2 3.8 16.1-.3 16-.3-21.7-27.5-21.7-27.4 4.1-5c2.3-2.7 11.3-13.3 20-23.5s16.3-19.4 16.8-20.4c.9-1.6 0-1.7-14-1.7h-15l-2.3 3.1c-1.3 1.7-2.2 3.6-2 4.1.1.5-.2.7-.7.4-1.2-.8-3.4 2.1-2.6 3.4.4.6.1.9-.7.8-.7-.2-1.2.3-1 1 .1.8-.1 1.1-.6.8s-5.1 4.5-10.3 10.6c-14.8 17.6-19 22.3-19.6 22-.2-.1-.4-10.6-.3-23.2l.1-23H516zm106 0v53h25l.2-26.8.3-26.7 2.8 4.3c1.5 2.4 3.7 6 4.9 8 1.1 2 5.4 9.4 9.6 16.4l7.5 12.8h7.4c7.2 0 7.4-.1 9.3-3.3 1.1-1.7 1.8-3.8 1.5-4.5s-.1-1.1.4-.8c1.3.8 17.4-27.1 16.5-28.5-.4-.8-.3-.9.4-.5s1.7-.3 2.4-1.8c.6-1.4 1.5-2.6 2-2.6.4 0 .8 12.1.8 27v27h25V816h-20.8l-18.1 30.5c-10 16.8-18.6 30.5-19 30.5-.5 0-8.4-12.8-17.7-28.5-9.2-15.6-17.2-28.1-17.7-27.8-.6.3-.7.1-.4-.5.4-.5.4-1.7.1-2.6-.5-1.3-2.5-1.6-11.5-1.6H622zm3.4-51.3c-.5.5-1.2 1.2-1.6 1.8s-.8.2-.8-.8c0-.9.7-1.7 1.7-1.7.9 0 1.2.3.7.7m61.3 90.9c-.3.3-1.2.4-1.9.1-.8-.3-.5-.6.6-.6 1.1-.1 1.7.2 1.3.5M880 869v53h24v-28.1c0-16.4.4-27.9.9-27.7.5.1 5.5 5.9 11.1 12.8 5.5 6.9 10.5 12.4 11.1 12.3.5-.2.8.1.6.6-.4 1.6 8.4 12.2 9.5 11.5.7-.4.8-.2.4.4-.8 1.3 10 14.8 11.5 14.5.5-.2.8 0 .8.5-.5 2.9.4 3.2 9.1 3.2h9V816h-23v29.5c0 16.2-.3 29.5-.7 29.5-.5-.1-7.1-8.1-14.8-18-7.6-9.8-14.2-17.7-14.5-17.5-.4.2-.7-.2-.7-.9 0-1.9-11.3-16.6-12.6-16.3-.7.1-1.1-.4-.9-1.2.2-.7-.5-2.2-1.4-3.2-1.4-1.6-3.2-1.9-10.6-1.9H880zm2.4-50.5c-.4.8-.8 1.5-1 1.5s-.4-.7-.4-1.5.4-1.5 1-1.5c.5 0 .7.7.4 1.5m14.9-.8c-.7.2-1.9.2-2.5 0-.7-.3-.2-.5 1.2-.5s1.9.2 1.3.5m51.4-.1c-.3.3-1.2.4-1.9.1-.8-.3-.5-.6.6-.6 1.1-.1 1.7.2 1.3.5M989 869v53h77v-22h-52v-18h43v-24l-21.2-.2-21.3-.3v-17h50.5V816h-76zm4-51.3c-.8.3-1.8 1.1-2.2 1.7-.5.7-.8.4-.8-.7s.7-1.7 2.3-1.6c1.5 0 1.7.2.7.6m71 .9c0 1.4-.3 1.4-1.5.4-.8-.7-1.5-1.4-1.5-1.6s.7-.4 1.5-.4 1.5.7 1.5 1.6m6.4-1.7c.3.5 1.4.8 2.4.6.9-.1 1.1 0 .5.2-2.1.7-4.1-3.4 17.3 33.8 7.6 13.2 15 26 16.6 28.4l2.8 4.5V922h24v-37.3l5.5-9.4c3-5.2 5.3-9.9 4.9-10.4-.3-.5-.1-.8.5-.7.5.2 7.3-10.5 15-23.7l13.9-24-12.7-.3c-11.3-.2-12.8-.1-14.1 1.6-.8 1-6.4 10.7-12.5 21.5-6 10.8-11.5 19.7-12.1 19.7s-1.6-1.2-2.2-2.6c-.7-1.5-1.7-2.2-2.4-1.8s-.8.3-.4-.5c.5-.7-1.3-4.9-4.2-9.9-2.7-4.8-7.4-13.1-10.3-18.4l-5.4-9.8h-13.8c-8 0-13.6.4-13.3.9m79.6.5c0 .3-.4.8-1 1.1-.5.3-1 .1-1-.4 0-.6.5-1.1 1-1.1.6 0 1 .2 1 .4m22 0c0 1.1-1.9 1.5-2.5.6-.3-.5.1-1 .9-1 .9 0 1.6.2 1.6.4m-39 102.1c0 .8-.4 1.5-1 1.5-.5 0-.7-.7-.4-1.5.4-.8.8-1.5 1-1.5s.4.7.4 1.5m-790.4 34.1c-1.8 1.7-2.2 5.4-.6 5.4.6 0 1.9-.5 2.9-1.2 1.5-.9 2.5-.9 4.6 0 5.8 2.7 10.5.8 10.5-4.2 0-2.1-3-2-4.5 0-1.1 1.5-1.4 1.5-4.3 0-3.9-2-6.6-2-8.6 0m8.4.8c0 .9-3 1.4-3.5.6-.4-.6.3-1 1.4-1 1.2 0 2.1.2 2.1.4m5.5 2.6c.3.5-.3 1-1.4 1-1.2 0-2.1-.5-2.1-1 0-.6.6-1 1.4-1s1.8.4 2.1 1m607.2-1.5L962 959l2.8-.1c1.8 0 3.6-1.2 5.5-3.5l2.9-3.4h-3.9c-3.5 0-4.1.4-5.6 3.5m-745.2 7c-.5.2-2.2.6-3.7.9-6.6 1.5-12.8 10.2-12.8 18 0 7.6 3.7 13.8 10.2 17.2 3.7 1.9 13.2 1.8 17.5-.2 5.4-2.6 9-9.9 7.7-15.7-.6-2.7-.6-2.7-8.5-2.7H221v3c0 2.9.2 3 4.5 3 3.8 0 4.5.3 4.5 1.9 0 5.4-11.1 8.2-16.3 4-5.2-4-6-13.8-1.6-19.3 3.8-4.8 11.6-5.1 16.4-.6 1.9 1.8 2.6 1.9 4.9.9 1.4-.7 2.6-1.6 2.6-2.1s-.4-.7-.9-.4-.8-.2-.7-1.2c0-.9-.5-1.6-1.2-1.4-.8.1-1.1-.2-.7-.8 1.1-1.7-10.8-5.6-14-4.5m65.6.5c-5.4 1.3-8.6 5.2-8.6 10.6 0 5.7 1.9 7.4 11.5 10.3 7.9 2.4 10.3 5 7.5 8.1-3.3 3.7-9.4 3.3-14-1-1.9-1.8-2.1-1.8-4.4.1-2.8 2.3-2.3 4.2 2.1 6.9 4.5 2.7 15 2.8 19.4.1 7.3-4.5 6.3-14.4-1.8-18.1-2.4-1.1-5.1-2-6.1-2-3.1 0-7.7-3-7.7-4.9 0-4.3 6-6 11.4-3.2 3.5 1.8 4 1.9 6.2.4 2-1.2 2.2-1.8 1.2-3-3-3.6-10.9-5.6-16.7-4.3m14.4 6.8c-1.7 1.5-1.8 1.5-.6 0 .7-.9.9-2.3.5-3-.6-1-.4-1.1.7 0 1.1 1 1 1.5-.6 3m-19.5 21c0 .4-1 1.3-2.2 2.1-2.3 1.4-2.3 1.4-.4-.8 2-2.2 2.6-2.5 2.6-1.3m104.5-27c-2.7 1-4.9 2.2-4.8 2.9.1.6-.5 1-1.4.9-2.9-.2-6.3 7.1-6.3 13.6 0 6.4.7 9.1 2.3 8.1.6-.3.7-.1.3.5-1.1 1.7 1.9 5.6 6.3 8 4.6 2.6 13.4 3 18.4.8 6.3-2.7 10.7-9.8 10.7-17.3 0-5.9-4.9-15.1-7.3-13.6-.6.3-.7.1-.3-.5.9-1.4-3.7-3.8-8.9-4.6-2.6-.4-5.7 0-9 1.2m13.2 6.9c2.6 1.7 5.3 7.2 5.3 10.8 0 4.1-2.9 9.4-6.1 11-5 2.6-10.3 1.9-14.3-1.9-3.3-3-3.6-3.8-3.6-8.9 0-4.5.5-6.1 2.6-8.6 4-4.8 10.8-5.8 16.1-2.4m206.4-7.2c-4.9 1.5-10.4 6.2-9.6 8.3.2.7.1 1.1-.4.8-1.4-.9-3.2 8-2.5 12.4 1.4 8.9 7.5 14.2 16.8 14.8 7.4.5 12.5-1.4 15.7-5.9l2.1-2.9-3.2-1.4c-3-1.2-3.3-1.1-6 1.6-2.1 2-3.8 2.8-6.5 2.8-7.8 0-12.1-4.7-11.9-13.2 0-4.2.5-5.4 3.5-8.3 4.8-4.7 9.9-5.1 14.8-.9 2.9 2.4 3.4 2.5 6.2 1.4 2.8-1.2 2.9-1.4 1.5-3.4-.8-1.1-2-2-2.6-1.8-.6.1-.9-.2-.5-.7.8-1.3-4.1-3.7-9-4.4-2.2-.3-6 .1-8.4.8m198.6-.1c-4.8 1.7-6.9 3.6-6.3 5.3.3.8.2 1.2-.3.9-1.2-.8-2 2.6-1.4 5.7.7 3.6 4 6.2 10.3 8.2 6.7 2.1 10 4.1 10 6 0 4.8-9.8 6.3-14.3 2.1l-2.6-2.4-2.6 2-2.6 2 2.2 2.4c3.1 3.3 8.1 4.7 15.2 4.2 5.2-.4 6.4-.9 8.8-3.6 3.1-3.5 3.7-7.4 1.8-11.5-1.3-3-3.5-4.2-11.3-6.5-6.6-2-8.8-4.1-7-7 2.4-3.7 7.4-3.7 12.6 0 1.4 1 2.1.9 3.8-.7l2-1.8-2.2-2.4c-2-2.2-7.5-4.3-10.8-4.3-.8.1-3.2.7-5.3 1.4m-7 30.1c0 .8-.4 1.2-.9.9s-.6-1-.3-1.5c.9-1.3 1.2-1.1 1.2.6m200.4-30.3c-5.1.9-11.5 5.3-10.7 7.5.4.9.2 1.1-.6.7-.8-.5-.9-.2-.5 1 .4.9.3 1.4-.2 1.1-1.4-.8-2.3 2.9-2.3 8.7.1 5.2 3.1 12.5 5.1 12.1.6-.2 1 .2.9.9-.5 2.1 6.3 4.8 12 4.8 6.3 0 11.4-2.1 13.7-5.7 1-1.4 2-5.2 2.2-8.4l.6-5.9H999v3c0 2.9.2 3 4.5 3 3.7 0 4.5.3 4.5 1.8 0 3.4-4.2 6.2-9.1 6.2-13.6 0-15.7-20-2.6-24.9 3.1-1.2 7-.1 10.3 3 1.8 1.7 2.5 1.8 4.8.8 3-1.4 3.1-1.7 1-4.7-1.5-2.2-4.1-3.2-2.8-1 .4.7.3.8-.5.4-.6-.4-.9-1.1-.6-1.6 1.3-2-7.4-3.9-13.4-2.8m7.9 20.4c0 .8-.6 1.4-1.4 1.4-1.2 0-1.4-1-.7-3.8.3-1 2.1 1.1 2.1 2.4m45.1-20.5c-4.6 1.4-8.2 3.9-7.4 5.2.3.6.1.7-.5.3-1.4-.9-3.7 2.8-5.1 8.1-2.2 8.1.9 16.4 7.8 21 2.6 1.8 4.8 2.3 9.3 2.3 6.4 0 8.8-.9 13.1-4.8 3.4-3.2 3.4-4.6 0-5.8-2.2-.8-3.1-.5-5.4 1.8-4.1 4.2-10 3.9-14.5-.6-3-3-3.4-4-3.4-8.6 0-5.7 2.1-10.2 5.4-11.9 4.4-2.2 8.7-1.7 12.4 1.4 3 2.5 4.8 3.3 3.8 1.6-.4-.5.2-.7 1.3-.4 3 .8 3.5-1.6 1-4.4-4.7-4.9-11.7-7-17.8-5.2m16.9 5.4c1.3 1.4 2.1 2.5 1.8 2.5-.2 0-1.5-1.1-2.8-2.5s-2.1-2.5-1.8-2.5c.2 0 1.5 1.1 2.8 2.5m2 22.9c0 1.1-1.9 1.5-2.5.6-.3-.5.1-1 .9-1 .9 0 1.6.2 1.6.4m-823-9.9v18.5h25v-6h-18v-10h16v-6h-16v-9h18v-6h-25zm24-15.5c0 1.1-.7 2-1.5 2-1.8 0-2-1.6-.2-2.4.6-.3-3.6-.5-9.5-.4s-11.1-.1-11.5-.5c-.3-.4 4.6-.7 11-.7 11 0 11.7.1 11.7 2m-18.3 25.2c-.3.8-.6.5-.6-.6-.1-1.1.2-1.7.5-1.3.3.3.4 1.2.1 1.9m69.8-27.2 15 .6-12.7.2c-10.6.2-12.8.5-12.8 1.7 0 2.1-1.8 1.9-2.2-.3-.3-1.4-.5-1.3-1 .5-.6 2.2-.3 2.3 5.3 2.3h5.9v31h7v-31h5.5c5.4 0 5.5 0 5.5-3v-3l-15.2.2-15.3.2zm27.1.8c-.4 1.1-.4 2.8 0 3.8.4 1.2.3 1.5-.3.7-.8-1.1-3.9 5.8-10.9 24.4l-2.4 6.3h3.4c3 0 3.6-.4 5-4l1.6-4h15.7l1.3 4c1.2 3.7 1.6 4 5.1 4h3.7l-2.9-7.3c-12.5-31.7-11.2-29.2-15.1-29.5-2.9-.2-3.8.1-4.2 1.6m5.7-.1c-.7.2-2.1.2-3 0-1-.3-.4-.5 1.2-.5 1.7 0 2.4.2 1.8.5m.1 10.8c.4 1.4 1 2.4 1.4 2.1.4-.2.8.6.8 1.7.1 1.2.5 3.2.9 4.4.7 2.2.5 2.3-4.5 2.3-4.5 0-5.2-.2-4.7-1.8.3-.9 1.1-3.8 1.8-6.5 1.4-5.2 3.3-6.1 4.3-2.2m76.6 6v18.5h7v-15h15v-6h-15v-10h17.5v-6H429zm17.8-16.8c-3.2.2-8.4.2-11.5 0-3.2-.2-.6-.3 5.7-.3s8.9.1 5.8.3m13 16.8.3 18.5h5.9v-17c0-9.4-.3-16.9-.7-16.8-.5 0-1.7-.3-2.8-.8-1.8-.8-1.7-.9 1-1.5l3-.7-3.5-.1-3.5-.1zm15.2 0v18.5h7v-11.5c0-6.3.3-11.5.8-11.5.4.1 4.5 5.2 9.2 11.5 7.2 9.8 8.8 11.5 11.2 11.5h2.7l.3-18.5.3-18.5H500v11.5c0 6.3-.4 11.5-.8 11.5-.5 0-2.3-2-4.2-4.5-3.2-4.3-5-5.9-3.4-3.3.4.8.3 1-.2.5s-.9-1.3-.9-1.8c0-.6-2-3.9-4.5-7.4-3.9-5.6-4.9-6.4-7.7-6.5H475zm5.9-17.1c-.2.2-1.4.9-2.6 1.5-1.9 1-2.3.9-2.3-.4q0-1.5 2.7-1.5c1.4 0 2.4.2 2.2.4m24.1.5c0 .5-.9 1.1-2 1.4-1.3.3-2 0-2-.9 0-.8.9-1.4 2-1.4s2 .4 2 .9m14.1 16.1c-3.9 9.9-7.1 18.2-7.1 18.5s1.5.5 3.4.5c3 0 3.6-.4 5-4l1.6-4h15.2l1.5 4c1.4 3.6 2 4 5 4 1.8 0 3.3-.3 3.3-.6 0-.4-3.2-8.7-7.1-18.5l-7.1-17.9h-6.6zm12.2-16.3c-.7.2-2.1.2-3 0-1-.3-.4-.5 1.2-.5 1.7 0 2.4.2 1.8.5m1.3 14.8c1.3 3.2 2.4 6 2.4 6.2s-2.5.3-5.6.3c-5 0-5.5-.2-4.9-1.8.4-.9 1.5-3.8 2.4-6.4s2-4.7 2.5-4.5c.4.1 1.9 2.9 3.2 6.2m21.9-15.8c4 .6 5.3 2 1.6 1.7-4-.3-4.3 1.7-3.9 20.1l.3 14.5h6.5v-11.5c0-6.3.4-11.5.8-11.5.5 0 2.8 2.7 5.2 6 2.4 3.2 4.6 5.7 5 5.5s.7.2.7.9 1.5 3.4 3.3 6c2.6 3.6 4 4.6 6.1 4.6h2.8l.3-18.5.3-18.5H577v11.5c0 6.3-.4 11.5-.8 11.5-.5 0-4.6-5.2-9.3-11.5-8.1-11-8.5-11.5-11.9-11.3-3.4.1-3.4.1-.5.5m27.5.7c0 .9-3 1.4-3.5.6-.4-.6.3-1 1.4-1 1.2 0 2.1.2 2.1.4m48.8 17.1.3 18.5H656v-6h-18v-10h16v-6h-16v-9h18v-6h-25.5zm11.9-16.8c-2 .2-5.2.2-7 0-1.7-.2 0-.4 3.8-.4 3.9 0 5.3.2 3.2.4m7-.1c-.3.3-1.2.4-1.9.1-.8-.3-.5-.6.6-.6 1.1-.1 1.7.2 1.3.5m5.3 1.4c0 1.1-.6 2-1.4 2-.7 0-1.6-.9-1.9-2-.4-1.5 0-2 1.4-2 1.2 0 1.9.7 1.9 2m-3.3 15c.1 1.1-.2 2-.6 2-.5 0-1.1-.9-1.4-2-.3-1.2 0-2 .7-2 .6 0 1.2.9 1.3 2m12.1.5.3 18.5h5.9v-34.7l-2.5.5c-1.4.2-2.5 0-2.5-.6s1.5-1.3 3.3-1.5c3-.3 2.9-.4-.8-.5l-4-.2zM686 964l7.5.6-7.2.2-7.3.2v35h7v-6.5c0-6.4 0-6.5 2.8-6.5 3.6 0 4.2.5 8.2 7.2 3.2 5.5 3.7 5.8 7.3 5.8h3.8l-1.7-2.9c-1-1.7-2.1-2.8-2.5-2.6-.4.3-.6-.3-.5-1.3 0-.9-.5-1.6-1.2-1.4-.8.1-1.1-.2-.7-.8s.2-1.7-.5-2.4c-.8-1.1-.5-1.8 1.3-3.3 3.4-2.6 4.7-5.5 4.7-10.5 0-8.9-5-11.9-19.2-11.6l-9.3.2zm11.8 6.7c2.1 1.8 2.5 3.1 2.3 6.6-.1 2.2-5.7 4.7-10.6 4.7H686v-13h4.9c3.2 0 5.6.6 6.9 1.7m21 9c-3.7 9.3-7 17.6-7.3 18.5-.6 1.5-.1 1.8 2.8 1.8 3.1 0 3.6-.4 5.1-4l1.6-4h15.2l1.5 4c1.4 3.6 2 4 5 4 1.8 0 3.3-.2 3.3-.4 0-.3-3.2-8.6-7.1-18.5l-7.1-18.1h-6.4zM730 965c-2 1.3-4 1.3-4 0 0-.6 1.2-1 2.8-1 2.1 0 2.4.2 1.2 1m1.4 13.2c.9 2.9 2 5.9 2.3 6.5.3 1-1 1.3-5.1 1.3h-5.5l1.3-3.8c2.8-7.5 3.6-9.2 4.4-9.2.5 0 1.6 2.4 2.6 5.2m32.6 3.3v18.5h24.5v-6H771v-10h15v-6h-15v-9h17v-6h-24zm7-16.8c-1.9.3-4.1.9-4.7 1.5-1 .8-1.3.6-1.3-.6 0-1.3 1-1.6 4.8-1.4 4 .1 4.2.2 1.2.5m16 1.3c0 1.1-.7 2-1.5 2s-1.2-.6-.9-1.4c.4-1.1-.6-1.6-4.3-1.9l-4.8-.3 5.8-.2c5.1-.2 5.7 0 5.7 1.8m-21.3 11.2c-.2 1.3-.4.3-.4-2.2s.2-3.5.4-2.3c.2 1.3.2 3.3 0 4.5m18.6 3.8c-.3 1.1-.9 2-1.3 2s-1-.9-1.3-2c-.4-1.5 0-2 1.3-2s1.7.5 1.3 2m-18.6 9.2c-.2 1.3-.4.3-.4-2.2s.2-3.5.4-2.3c.2 1.3.2 3.3 0 4.5m69.8-26.2 13 .6-10.7.2c-8.6.2-10.8.5-10.8 1.6 0 .8-1 1.7-2.2 1.9-1.3.2.5.5 4 .6l6.2.1v31h7v-31h12v-6l-15.7.2-15.8.2zm17.5 2c0 1.1-.6 2-1.3 2s-1.3-.9-1.3-2 .6-2 1.3-2 1.3.9 1.3 2m5.4 15.5v18.5h6.5l.3-6.3c.3-6.1.3-6.2 3.4-6.5 2.9-.3 3.4.2 7 6.2 3.6 6.3 4 6.6 7.6 6.6 2.1 0 3.8-.2 3.8-.5 0-.2-1.6-2.9-3.5-5.9s-3.5-5.8-3.5-6.1c0-.4 1.3-2 2.9-3.5 3.8-3.9 4.7-9 2.4-13.8-2.7-5.5-6.9-7.2-17.9-7.2h-9zm7.9-16.8c-1.3.2-3.3.2-4.5 0-1.3-.2-.3-.4 2.2-.4s3.5.2 2.3.4m9 0c-.7.2-1.9.2-2.5 0-.7-.3-.2-.5 1.2-.5s1.9.2 1.3.5m2.2 6.8c3 2.9 3.1 4.5.8 7.4-1.4 1.6-3.1 2.2-7.3 2.4l-5.5.2-.3-4.9c-.5-6.9 0-7.6 5.3-7.6 3.5 0 5.2.6 7 2.5m21 6.7c-3.2 8.4-6.4 16.8-7.2 18.5l-1.3 3.3h3.5c3.2 0 3.7-.4 5.1-4l1.6-4h15.7l1.2 4c1.1 3.7 1.5 4 4.9 4h3.7l-6.5-16.5c-3.6-9-6.8-16.2-7.2-16-.3.2-.6-.6-.6-1.8.1-1.8-.5-2.3-3.4-2.5l-3.6-.3zm11.5-13.8c0 .9-4 1.3-4.6.5-.3-.5.6-.9 2-.9s2.6.2 2.6.4m.4 13.8c1 2.9 2.1 5.9 2.3 6.5.4.9-.9 1.3-4.6 1.3-2.8 0-5.1-.4-5.1-1 0-1.7 4.1-12 4.8-12 .4 0 1.6 2.4 2.6 5.2M924 966c0 3 .1 3 5.5 3h5.5v31h7v-31h4c3.8 0 4-.2 4-3v-3h-26zm25 0c0 1.1-.7 2-1.5 2s-1.5-.7-1.5-1.5c0-1.2-1.7-1.5-9.5-1.5s-9.5.3-9.5 1.5c0 .8-.4 1.5-1 1.5-.5 0-1-.9-1-2 0-1.9.7-2 12-2s12 .1 12 2m-8.3 12.2c-.2 1.3-.4.3-.4-2.2s.2-3.5.4-2.3c.2 1.3.2 3.3 0 4.5m0 11c-.2 1.8-.4.6-.4-2.7s.2-4.8.4-3.3.2 4.2 0 6m0 7.5c-.3 1-.5.4-.5-1.2 0-1.7.2-2.4.5-1.8.2.7.2 2.1 0 3m12.3-15.2v18.5h25v-6h-18v-10h15v-6h-15v-9h17v-6h-24zm23-15.5c0 1.1-.7 2-1.5 2s-1.5-.7-1.5-1.6c0-1.4-1.3-1.5-9.5-1.2-5.2.1-9.5 0-9.5-.5 0-.4 5-.7 11-.7 10.3 0 11 .1 11 2m-2.7 13.7c-.7.2-1.9.2-2.5 0-.7-.3-.2-.5 1.2-.5s1.9.2 1.3.5m47.7 1.8v18.5h7v-37h-7zm6-16.5c0 .5-.9 1-1.9 1-1.1 0-2.3-.5-2.6-1-.4-.6.5-1 1.9-1s2.6.4 2.6 1m50.8 16.5-7.5 18.5h3.8c3.6 0 3.9-.2 5-4l1.2-4.1 8 .3 8 .3 1.2 3.5c1 3.1 1.6 3.5 5 3.8 3.3.3 3.7.1 3.1-1.5-.4-1-3.7-9.3-7.3-18.6l-6.6-16.7h-6.4zm12.5-16.8c-.7.2-2.1.2-3 0-1-.3-.4-.5 1.2-.5 1.7 0 2.4.2 1.8.5m1.3 15.1 2.3 6.2h-5.6c-4.9 0-5.4-.2-4.8-1.8.4-.9 1.5-3.8 2.4-6.4s2-4.7 2.5-4.5c.4.2 1.9 3.1 3.2 6.5"/></g><path fill="#aaa" d="M615.4 206c0 15.7.2 22.1.3 14.2.2-7.8.2-20.6 0-28.5-.1-7.8-.3-1.4-.3 14.3m-58.2-24.5c0 1.6.2 2.2.5 1.2.2-.9.2-2.3 0-3-.3-.6-.5.1-.5 1.8m-.2 37.2c-.3 13.3-.2 23.9.3 23.4.4-.4.6-11.3.5-24.2l-.3-23.4zM369.5 292c0 27.2.1 38.4.2 24.7.2-13.6.2-35.8 0-49.5-.1-13.6-.2-2.4-.2 24.8m246 48c0 23.4.1 32.9.2 21.2.2-11.6.2-30.8 0-42.5-.1-11.6-.2-2.1-.2 21.3m135.8-32.5c0 4.4.2 6.1.4 3.7.2-2.3.2-5.9 0-8-.2-2-.4-.1-.4 4.3M557.4 325c0 6.3.1 8.9.3 5.7.2-3.1.2-8.3 0-11.5-.2-3.1-.3-.5-.3 5.8m432.1-5c.3.5.8 1 1.1 1 .2 0 .4-.5.4-1 0-.6-.5-1-1.1-1-.5 0-.7.4-.4 1m-238.2 5c0 3 .2 4.3.4 2.7.2-1.5.2-3.9 0-5.5-.2-1.5-.4-.2-.4 2.8m235.8 16.6c0 1.1.3 1.4.6.6.3-.7.2-1.6-.1-1.9-.3-.4-.6.2-.5 1.3m-235.2 2.7c.4.4 12.4.6 26.7.5l25.9-.3-26.7-.5c-14.7-.3-26.4-.2-25.9.3m-278 9.4c-1.3 1.6-1.2 1.7.4.4s2.1-2.1 1.3-2.1c-.2 0-1 .8-1.7 1.7m83.6 46.3c0 21.2.1 29.8.2 19.2.2-10.5.2-27.9 0-38.5-.1-10.5-.2-1.9-.2 19.3m323-12c1 1.1 2 2 2.3 2s-.3-.9-1.3-2-2-2-2.3-2 .3.9 1.3 2m-265.1 21c0 11.8.2 16.7.3 10.7.2-5.9.2-15.5 0-21.5-.1-5.9-.3-1-.3 10.8m362.7-3.4c0 1.1.3 1.4.6.6.3-.7.2-1.6-.1-1.9-.3-.4-.6.2-.5 1.3M452.3 412c0 3 .2 4.3.4 2.7.2-1.5.2-3.9 0-5.5-.2-1.5-.4-.2-.4 2.8m524.8.6c0 1.1.3 1.4.6.6.3-.7.2-1.6-.1-1.9-.3-.4-.6.2-.5 1.3m-1 7c0 1.1.3 1.4.6.6.3-.7.2-1.6-.1-1.9-.3-.4-.6.2-.5 1.3m-1 7c0 1.1.3 1.4.6.6.3-.7.2-1.6-.1-1.9-.3-.4-.6.2-.5 1.3M655.4 454c0 15.7.2 22.1.3 14.2.2-7.8.2-20.6 0-28.5-.1-7.8-.3-1.4-.3 14.3m-40-5.5c0 8.2.2 11.5.3 7.2.2-4.3.2-11 0-15-.1-4-.3-.5-.3 7.8M908.5 478c.3.5.8 1 1.1 1 .2 0 .4-.5.4-1 0-.6-.5-1-1.1-1-.5 0-.7.4-.4 1m.8 5.5c0 2.2.2 3 .4 1.7.2-1.2.2-3 0-4-.3-.9-.5.1-.4 2.3m-95.4-.8c-1.3 1.6-1.2 1.7.4.4.9-.7 1.7-1.5 1.7-1.7 0-.8-.8-.3-2.1 1.3M557.5 601c0 30.5.1 43 .2 27.7.2-15.2.2-40.2 0-55.5-.1-15.2-.2-2.7-.2 27.8m298.8-46.5c0 2.2.2 3 .4 1.7.2-1.2.2-3 0-4-.3-.9-.5.1-.4 2.3M615.4 562c0 5.8.1 8.1.3 5.2.2-2.8.2-7.6 0-10.5-.2-2.8-.3-.5-.3 5.3m36.1-3c1 1.1 2 2 2.3 2s-.3-.9-1.3-2-2-2-2.3-2 .3.9 1.3 2m3.5 3.4c0 .2.8 1 1.8 1.7 1.5 1.3 1.6 1.2.3-.4s-2.1-2.1-2.1-1.3M615.4 607c0 18.4.2 26 .3 16.7.2-9.2.2-24.2 0-33.5-.1-9.2-.3-1.6-.3 16.8m-117.3-17.4c0 1.1.3 1.4.6.6.3-.7.2-1.6-.1-1.9-.3-.4-.6.2-.5 1.3m294.8 8.1c-1.3 1.6-1.2 1.7.4.4.9-.7 1.7-1.5 1.7-1.7 0-.8-.8-.3-2.1 1.3m-71.8 3.9c0 1.1.3 1.4.6.6.3-.7.2-1.6-.1-1.9-.3-.4-.6.2-.5 1.3M615.3 652c0 4.7.2 6.6.4 4.2.2-2.3.2-6.1 0-8.5-.2-2.3-.4-.4-.4 4.3m72.6 23.7-3.4 3.8 3.8-3.4c2-1.9 3.7-3.6 3.7-3.8 0-.8-.8 0-4.1 3.4m220.4 20.8c0 2.2.2 3 .4 1.7.2-1.2.2-3 0-4-.3-.9-.5.1-.4 2.3m-351.7 16.8c.3 1 .9 1.5 1.2 1.2s0-1.1-.7-1.8c-1-.9-1.1-.8-.5.6m312.2-.6c7.2.2 19.2.2 26.5 0 7.2-.1 1.3-.3-13.3-.3s-20.5.2-13.2.3m-253.5 6.8c0 3.8.2 5.3.4 3.2.2-2 .2-5.2 0-7-.2-1.7-.4-.1-.4 3.8m-58.1-.5c0 1.9.2 2.7.5 1.7.2-.9.2-2.5 0-3.5-.3-.9-.5-.1-.5 1.8m58 31.2L615 769l-28.7.3-28.8.2 28.8.3c22.7.2 28.9-.1 29.3-1.1.2-.7.3-9.4.1-19.2l-.2-18zm-57.8 1.8c0 6.9.1 9.7.3 6.2.2-3.4.2-9 0-12.5-.2-3.4-.3-.6-.3 6.3m256.4 62.7c.7.3 1.6.2 1.9-.1.4-.3-.2-.6-1.3-.5-1.1 0-1.4.3-.6.6m-688.4 1.6c-.2.7-.3 6.5-.1 12.8l.3 11.4.2-12.2.2-12.3 43.3-.3 43.2-.2-43.3-.3c-34.9-.2-43.4.1-43.8 1.1m90.6-.9c0 .2 1.5.6 3.4.8s3.2 0 3-.4c-.5-.8-6.4-1.2-6.4-.4m17.8.3c.6.2 1.8.2 2.5 0 .6-.3.1-.5-1.3-.5s-1.9.2-1.2.5m15 0c1.8.2 4.5.2 6 0s0-.4-3.3-.4-4.5.2-2.7.4m56.5 0c1.5.2 3.7.2 5 0 1.2-.2 0-.4-2.8-.4-2.7 0-3.8.2-2.2.4m17.4 0 6.3.4.3 52.7.2 52.7v-106l-6.5-.1h-6.5zm28.6 0c.9.2 2.3.2 3 0 .6-.3-.1-.5-1.8-.5-1.6 0-2.2.2-1.2.5m16.5 0c1.7.2 4.7.2 6.5 0 1.7-.2.3-.4-3.3-.4s-5 .2-3.2.4m37.5 0c2.6.2 6.8.2 9.5 0 2.6-.2.4-.3-4.8-.3s-7.4.1-4.7.3m68.9 0c3.7.2 10 .2 14 0 4-.1 1-.3-6.7-.3s-11 .1-7.3.3m47.1 0c.9.2 2.3.2 3 0 .6-.3-.1-.5-1.8-.5-1.6 0-2.2.2-1.2.5m12.5 0c1.8.2 4.5.2 6 0s0-.4-3.3-.4-4.5.2-2.7.4m47.9 0c-.3.5 3.8.7 9.1.5 17.9-.5 19.8-.8 5.5-1-7.8-.1-14.4.1-14.6.5m45.6 0c3.2.2 8.1.2 11 0s.3-.3-5.8-.3c-6 0-8.4.1-5.2.3m89.4 0c-.3.5 2.9.7 7.1.5 13.5-.4 15-.9 4-1-5.9-.1-10.9.1-11.1.5m164.8-.1c7 .8 17.3.8 16.8.1-.2-.4-4.8-.6-10.1-.5-5.3 0-8.3.3-6.7.4m75 .1 11.5.4.3 52.9.2 53V815.5h-11.8l-11.7-.1zm34.3 0c1.2.2 3 .2 4 0 .9-.3-.1-.5-2.3-.4-2.2 0-3 .2-1.7.4m22 0c2.8.2 7.6.2 10.5 0 2.8-.2.5-.3-5.3-.3s-8.1.1-5.2.3m29 0c2.9.2 7.4.2 10 0s.2-.3-5.3-.3-7.6.1-4.7.3m20 0c.6.2 1.8.2 2.5 0 .6-.3.1-.5-1.3-.5s-1.9.2-1.2.5m10.5 0c1.5.2 3.7.2 5 0 1.2-.2 0-.4-2.8-.4-2.7 0-3.8.2-2.2.4m15 0c2 .2 5.4.2 7.5 0 2-.2.3-.4-3.8-.4s-5.8.2-3.7.4m66.5 0c3.4.2 8.8.2 12 0 3.1-.2.3-.3-6.3-.3s-9.2.1-5.7.3m19.5.8c0 .8.4 1.2.9.9s.6-1 .3-1.5c-.9-1.3-1.2-1.1-1.2.6m-913.8 21v20h21.4c16.6 0 21.5-.3 21.7-1.3.1-.7 0-.8-.3-.2s-8.1 1-21.4 1H260l-.3-19.8-.3-19.7zm-37.2-4.5c0 3 .2 4.3.4 2.7.2-1.5.2-3.9 0-5.5-.2-1.5-.4-.2-.4 2.8m564.1 15.2-1.9 2.3 2.3-1.9c1.2-1.1 2.2-2.1 2.2-2.3 0-.8-.8-.2-2.6 1.9m238.9 9.5c5.9.2 15.5.2 21.5 0 5.9-.1 1-.3-10.8-.3s-16.7.2-10.7.3m-273.2 5.9c0 1.1.3 1.4.6.6.3-.7.2-1.6-.1-1.9-.3-.4-.6.2-.5 1.3m112 3c0 1.1.3 1.4.6.6.3-.7.2-1.6-.1-1.9-.3-.4-.6.2-.5 1.3m80 5c0 1.1.3 1.4.6.6.3-.7.2-1.6-.1-1.9-.3-.4-.6.2-.5 1.3m-80 1c0 1.1.3 1.4.6.6.3-.7.2-1.6-.1-1.9-.3-.4-.6.2-.5 1.3m-604.7 28.9c0 10.4.2 14.6.3 9.2.2-5.4.2-13.9 0-19-.1-5.1-.3-.7-.3 9.8m850 .5c0 9.6.2 13.6.3 8.7.2-4.8.2-12.6 0-17.5-.1-4.8-.3-.8-.3 8.8m-82.1-2.3c7 .2 18.4.2 25.5 0 7-.1 1.2-.3-12.8-.3s-19.8.2-12.7.3m-219.5 1c.7.3 1.6.2 1.9-.1.4-.3-.2-.6-1.3-.5-1.1 0-1.4.3-.6.6m-2.5 23c1.5.2 3.9.2 5.5 0 1.5-.2.2-.4-2.8-.4s-4.3.2-2.7.4m-463.5 36c.7.3 1.6.2 1.9-.1.4-.3-.2-.6-1.3-.5-1.1 0-1.4.3-.6.6m581.5 6.5c.2 3.3.3 3.3 5.5 3.4l5.2.1-4.9-.4c-4.6-.4-5-.6-5.5-3.4-.6-2.8-.6-2.8-.3.3m26.9-.2c0 1.9.2 2.7.5 1.7.2-.9.2-2.5 0-3.5-.3-.9-.5-.1-.5 1.8m78 15.2-.2 18.7-3.7.4-3.8.4 3.8.1c2.3.1 4-.3 4.3-1.1.2-.7.3-9.4.1-19.2l-.2-18zm-553.7 1v18.3l3.8.1 3.7.1-3.5-.4-3.5-.4-.3-18-.3-17.9zm24.9-9.2c0 5.2.1 7.4.3 4.7.2-2.6.2-6.8 0-9.5-.2-2.6-.3-.4-.3 4.8m-256.1-4c0 2.5.2 3.5.4 2.2.2-1.2.2-3.2 0-4.5-.2-1.2-.4-.2-.4 2.3m55.7-3.6c0 .2.8 1 1.8 1.7 1.5 1.3 1.6 1.2.3-.4s-2.1-2.1-2.1-1.3m404 0c0 .2.8 1 1.8 1.7 1.5 1.3 1.6 1.2.3-.4s-2.1-2.1-2.1-1.3m179 0c0 .2.8 1 1.8 1.7 1.5 1.3 1.6 1.2.3-.4s-2.1-2.1-2.1-1.3m-287.1 2.3c-1.3 1.6-1.2 1.7.4.4s2.1-2.1 1.3-2.1c-.2 0-1 .8-1.7 1.7m-338.6 2c2.6.2 6.7.2 9 0s.2-.3-4.8-.3c-4.9 0-6.8.1-4.2.3m51 0c1.5.2 3.9.2 5.5 0 1.5-.2.2-.4-2.8-.4s-4.3.2-2.7.4m20.5 0c1.8.2 4.5.2 6 0s0-.4-3.3-.4-4.5.2-2.7.4m113.5 0c2.6.2 6.7.2 9 0s.2-.3-4.8-.3c-4.9 0-6.8.1-4.2.3m202 0c2.6.2 6.7.2 9 0s.2-.3-4.8-.3c-4.9 0-6.8.1-4.2.3m45.5 0c1.2.2 3 .2 4 0 .9-.3-.1-.5-2.3-.4-2.2 0-3 .2-1.7.4m87.5 0c2.6.2 6.7.2 9 0s.2-.3-4.8-.3c-4.9 0-6.8.1-4.2.3m49 0c1.5.2 3.7.2 5 0 1.2-.2 0-.4-2.8-.4-2.7 0-3.8.2-2.2.4m20.5 0c1.8.2 4.5.2 6 0s0-.4-3.3-.4-4.5.2-2.7.4m19.6.7c-.3.7-.3 3.5-.1 6.2l.3 4.9.2-5.7.2-5.7 4.3-.4 4.2-.4-4.3-.1q-4.2-.15-4.8 1.2m78.9-.7c.9.2 2.5.2 3.5 0 .9-.3.1-.5-1.8-.5s-2.7.2-1.7.5m16.1.7c-.3.8-.4 2.7-.1 4.3.3 2.4.4 2.2.6-.9l.1-3.7 8.8-.4 8.7-.3-8.8-.2c-6.8-.2-8.9.1-9.3 1.2m-346.4 0c0 .2.8 1 1.8 1.7 1.5 1.3 1.6 1.2.3-.4s-2.1-2.1-2.1-1.3m262 0c0 .2.8 1 1.8 1.7 1.5 1.3 1.6 1.2.3-.4s-2.1-2.1-2.1-1.3m128 0c0 .2.8 1 1.8 1.7 1.5 1.3 1.6 1.2.3-.4s-2.1-2.1-2.1-1.3m-623.1 2.3c-1.3 1.6-1.2 1.7.4.4.9-.7 1.7-1.5 1.7-1.7 0-.8-.8-.3-2.1 1.3m-64.8.9c0 1.1.3 1.4.6.6.3-.7.2-1.6-.1-1.9-.3-.4-.6.2-.5 1.3m518.1 1.4c0 1.9.2 2.7.5 1.7.2-.9.2-2.5 0-3.5-.3-.9-.5-.1-.5 1.8m-203.8 8c0 5.2.1 7.4.3 4.7.2-2.6.2-6.8 0-9.5-.2-2.6-.3-.4-.3 4.8m344.8-2c0 1.4.2 1.9.5 1.2.2-.6.2-1.8 0-2.5-.3-.6-.5-.1-.5 1.3m-731.8 9.5.1 10h26l.1-2.8c.1-2.5.1-2.5-.3-.2l-.4 2.5h-24.8l-.4-9.8-.3-9.7zm157.8-8.5c0 1.4.2 1.9.5 1.2.2-.6.2-1.8 0-2.5-.3-.6-.5-.1-.5 1.3m50 0c0 1.4.2 1.9.5 1.2.2-.6.2-1.8 0-2.5-.3-.6-.5-.1-.5 1.3m564.1 2c0 2.5.2 3.5.4 2.2.2-1.2.2-3.2 0-4.5-.2-1.2-.4-.2-.4 2.3m-456.1 6.2-.2 9.7-3.2.4-3.3.4 3.3.1c1.9.1 3.5-.3 3.8-1.1s.3-5.4.1-10.3l-.3-8.9zm-60.2-6.3c0 .7-.5.9-1.2.5-.7-.5-.8-.3-.3.5.5.9 1 1 1.8.2.6-.6.8-1.4.4-1.8-.4-.3-.7-.1-.7.6m-243.7.8c2 .2 5.4.2 7.5 0 2-.2.3-.4-3.8-.4s-5.8.2-3.7.4m387.5 0c2.3.2 5.9.2 8 0 2-.2.1-.4-4.3-.4s-6.1.2-3.7.4m133 0c2.3.2 5.9.2 8 0 2-.2.1-.4-4.3-.4s-6.1.2-3.7.4m184.6.7c-.3.8-.4 2.9-.1 4.8.3 3 .4 2.9.5-.9l.2-4.2 6.8-.4 6.7-.3-6.8-.2c-5-.1-6.9.2-7.3 1.2m-519.6.3c2.3.2 5.9.2 8 0 2-.2.1-.4-4.3-.4s-6.1.2-3.7.4m560.5 1c1.5.2 3.7.2 5 0 1.2-.2 0-.4-2.8-.4-2.7 0-3.8.2-2.2.4m-136 6.8c0 3.3.2 4.5.4 2.7s.2-4.5 0-6-.4 0-.4 3.3m-212.5.2c.6.2 1.8.2 2.5 0 .6-.3.1-.5-1.3-.5s-1.9.2-1.2.5m320.5 0c.9.2 2.5.2 3.5 0 .9-.3.1-.5-1.8-.5s-2.7.2-1.7.5m12.2 2.3c1 1.1 2 2 2.3 2s-.3-.9-1.3-2-2-2-2.3-2 .3.9 1.3 2m-192.5-.6c0 .2.8 1 1.8 1.7 1.5 1.3 1.6 1.2.3-.4s-2.1-2.1-2.1-1.3m-456.5 4.6-4 .7 3.7.2c2 0 4-.4 4.3-.9.3-.6.5-.9.3-.9-.2.1-2.1.5-4.3.9m29 0-4 .7 3.7.2c2 0 4-.4 4.3-.9.3-.6.5-.9.3-.9-.2.1-2.1.5-4.3.9m134.4.3c.5.5 2.1.7 3.7.5 2.7-.3 2.6-.4-.8-.9-2.2-.3-3.4-.1-2.9.4m179 0c.5.5 2.4.7 4.2.5 3.3-.3 3.3-.4-.8-.8-2.3-.3-3.9-.2-3.4.3m25.6-.3-4 .7 3.7.2c2 0 4-.4 4.3-.9.3-.6.5-.9.3-.9-.2.1-2.1.5-4.3.9m6.2.2c.2.5 1.9.8 3.8.8s3.6-.3 3.8-.8c.3-.4-1.4-.7-3.8-.7s-4.1.3-3.8.7m124.2.1c.5.5 2.4.7 4.2.5 3.3-.3 3.3-.4-.8-.8-2.3-.3-3.9-.2-3.4.3m54.8-.1c.2.5 1.9.8 3.8.8s3.6-.3 3.8-.8c.3-.4-1.4-.7-3.8-.7s-4.1.3-3.8.7m212.8-.2-4 .7 3.7.2c2 0 4-.4 4.3-.9.3-.6.5-.9.3-.9-.2.1-2.1.5-4.3.9m-783.7.7c1.2.2 3 .2 4 0 .9-.3-.1-.5-2.3-.4-2.2 0-3 .2-1.7.4m112 0c1.2.2 3 .2 4 0 .9-.3-.1-.5-2.3-.4-2.2 0-3 .2-1.7.4m30.5 0c.9.2 2.5.2 3.5 0 .9-.3.1-.5-1.8-.5s-2.7.2-1.7.5m51.5 0c1.2.2 3.2.2 4.5 0 1.2-.2.2-.4-2.3-.4s-3.5.2-2.2.4m29 0c1.2.2 3.2.2 4.5 0 1.2-.2.2-.4-2.3-.4s-3.5.2-2.2.4m37.5 0c.9.2 2.3.2 3 0 .6-.3-.1-.5-1.8-.5-1.6 0-2.2.2-1.2.5m58 0c3.7.2 9.6.2 13 0s.4-.3-6.8-.3c-7.1 0-9.9.1-6.2.3m28 0c.9.2 2.5.2 3.5 0 .9-.3.1-.5-1.8-.5s-2.7.2-1.7.5m75.5 0c1.2.2 3.2.2 4.5 0 1.2-.2.2-.4-2.3-.4s-3.5.2-2.2.4m29 0c3.4.2 9 .2 12.5 0 3.4-.2.6-.3-6.3-.3s-9.7.1-6.2.3m90.5 0c.9.2 2.5.2 3.5 0 .9-.3.1-.5-1.8-.5s-2.7.2-1.7.5m21.5 0c1.2.2 3 .2 4 0 .9-.3-.1-.5-2.3-.4-2.2 0-3 .2-1.7.4m38 0c1.2.2 3.2.2 4.5 0 1.2-.2.2-.4-2.3-.4s-3.5.2-2.2.4m17 0c1.2.2 3 .2 4 0 .9-.3-.1-.5-2.3-.4-2.2 0-3 .2-1.7.4m22.5 0c3.7.2 9.6.2 13 0s.4-.3-6.8-.3c-7.1 0-9.9.1-6.2.3m113 0c.9.2 2.5.2 3.5 0 .9-.3.1-.5-1.8-.5s-2.7.2-1.7.5"/><path fill="#80aa80" d="M615.1 432.6c0 1.1.3 1.4.6.6.3-.7.2-1.6-.1-1.9-.3-.4-.6.2-.5 1.3m442.2 383.1c.9.2 2.3.2 3 0 .6-.3-.1-.5-1.8-.5-1.6 0-2.2.2-1.2.5"/><path fill="#80aaaa" d="M615.2 642c0 1.4.2 1.9.5 1.2.2-.6.2-1.8 0-2.5-.3-.6-.5-.1-.5 1.3M312.8 815.7c.6.2 1.8.2 2.5 0 .6-.3.1-.5-1.3-.5s-1.9.2-1.2.5"/><path fill="#555580" d="M576.2 970c0 1.4.2 1.9.5 1.2.2-.6.2-1.8 0-2.5-.3-.6-.5-.1-.5 1.3"/></svg>